if(_typeface_js&&_typeface_js.loadFace)_typeface_js.loadFace({"glyphs":{"ǻ":{"x_min":30,"x_max":682,"ha":586,"o":"m 524 415 q 515 339 524 389 l 447 0 l 374 0 l 386 62 q 205 -11 305 -11 q 81 34 132 -11 q 30 155 30 79 q 95 296 30 239 q 267 353 160 353 q 431 307 359 353 l 439 353 q 447 406 447 392 q 409 490 447 458 q 308 523 371 523 q 159 495 238 523 l 151 564 q 317 592 240 592 q 467 546 410 592 q 524 415 524 501 m 419 244 q 265 292 362 292 q 149 254 194 292 q 104 161 104 217 q 135 81 104 110 q 223 52 167 52 q 397 132 313 52 l 419 244 m 682 1166 l 409 1019 l 388 1062 l 643 1240 l 682 1166 m 530 833 q 485 720 530 770 q 375 670 440 670 q 289 704 323 670 q 256 789 256 738 q 300 902 256 853 q 410 952 345 952 q 496 918 462 952 q 530 833 530 885 m 473 828 q 453 885 473 864 q 405 906 434 906 q 341 872 369 906 q 313 793 313 839 q 331 737 313 757 q 379 717 350 717 q 444 749 416 717 q 473 828 473 782 "},"Ő":{"x_min":115,"x_max":1117,"ha":1153,"o":"m 837 1332 l 640 1116 l 605 1144 l 775 1378 l 837 1332 m 1028 1323 l 833 1112 l 798 1138 l 965 1368 l 1028 1323 m 1117 570 q 1050 292 1117 424 q 854 72 983 159 q 562 -14 725 -14 q 240 115 366 -14 q 115 448 115 244 q 181 726 115 594 q 377 946 248 859 q 669 1033 506 1033 q 991 903 865 1033 q 1117 570 1117 774 m 1038 572 q 935 851 1038 742 q 668 961 832 961 q 329 810 465 961 q 194 447 194 659 q 296 166 194 275 q 563 57 399 57 q 902 207 766 57 q 1038 572 1038 358 "},"Ž":{"x_min":11.109375,"x_max":932.015625,"ha":863,"o":"m 819 1324 l 611 1117 l 569 1117 l 441 1324 l 519 1324 l 602 1189 l 734 1324 l 819 1324 m 932 1004 l 147 71 l 744 71 l 730 0 l 13 0 l 11 13 l 795 949 l 227 949 l 240 1018 l 927 1018 l 932 1004 "},"Á":{"x_min":-45.84375,"x_max":852.84375,"ha":910,"o":"m 834 0 l 752 0 l 687 313 l 226 313 l 37 0 l -45 0 l 588 1035 l 601 1035 l 834 0 m 672 378 l 568 875 l 266 378 l 672 378 m 852 1251 l 580 1104 l 559 1147 l 813 1325 l 852 1251 "},"Î":{"x_min":68.0625,"x_max":509.765625,"ha":328,"o":"m 344 1018 l 145 0 l 68 0 l 266 1018 l 344 1018 m 509 1118 l 433 1118 l 350 1252 l 216 1118 l 131 1118 l 340 1325 l 383 1325 l 509 1118 "},"e":{"x_min":50,"x_max":570,"ha":609,"o":"m 307 -11 q 118 53 186 -11 q 50 233 50 118 q 141 480 50 369 q 365 592 233 592 q 516 528 462 592 q 570 371 570 465 q 557 281 570 326 l 125 281 q 124 240 124 268 q 174 104 124 153 q 315 56 224 56 q 460 83 383 56 q 462 72 461 79 q 465 51 462 65 q 469 28 468 37 l 472 19 q 307 -11 399 -11 m 141 342 l 493 342 q 496 379 496 353 q 461 484 496 443 q 359 525 426 525 q 228 473 289 525 q 141 342 168 421 "},"»":{"x_min":8.328125,"x_max":480.59375,"ha":558,"o":"m 480 237 l 290 13 l 209 13 l 404 244 l 298 467 l 379 467 l 480 237 m 279 237 l 88 13 l 8 13 l 202 244 l 97 467 l 177 467 l 279 237 "},"ļ":{"x_min":-66.671875,"x_max":306.96875,"ha":263,"o":"m 105 -169 q 58 -277 105 -226 q -54 -364 11 -329 l -66 -345 q 44 -219 19 -277 q 4 -198 19 -214 q -11 -157 -11 -181 q 5 -117 -11 -134 q 45 -101 22 -101 q 86 -119 68 -101 q 105 -169 105 -138 m 306 1018 l 109 0 l 33 0 l 230 1018 l 306 1018 "},"Ĕ":{"x_min":61.109375,"x_max":822.28125,"ha":765,"o":"m 822 1018 l 808 949 l 325 949 l 247 551 l 683 551 l 669 482 l 234 482 l 154 71 l 638 71 l 625 0 l 61 0 l 259 1018 l 822 1018 m 775 1296 q 708 1161 760 1212 q 574 1111 657 1111 q 454 1150 499 1111 q 410 1256 410 1190 q 412 1296 410 1282 l 479 1302 q 477 1265 477 1290 q 505 1193 477 1218 q 579 1169 533 1169 q 664 1203 631 1169 q 708 1301 697 1238 l 775 1296 "}," ":{"x_min":0,"x_max":0,"ha":695},"ò":{"x_min":49,"x_max":592,"ha":643,"o":"m 518 340 q 474 474 518 423 q 355 525 430 525 q 209 459 277 525 q 123 240 123 376 q 166 106 123 157 q 284 56 210 56 q 430 121 365 56 q 518 340 518 205 m 592 344 q 483 76 592 187 q 280 -11 396 -11 q 113 57 177 -11 q 49 236 49 126 q 157 504 49 393 q 360 592 244 592 q 527 523 463 592 q 592 344 592 454 m 451 701 l 420 660 l 168 814 l 216 881 l 451 701 "},"ţ":{"x_min":48.609375,"x_max":428.515625,"ha":407,"o":"m 220 -169 q 173 -277 220 -226 q 61 -364 126 -329 l 48 -345 q 159 -219 134 -277 q 119 -198 134 -214 q 104 -157 104 -181 q 120 -117 104 -134 q 161 -101 137 -101 q 202 -119 183 -101 q 220 -169 220 -138 m 428 581 l 416 513 l 238 513 l 170 161 q 166 120 166 141 q 263 57 166 57 q 318 61 291 57 l 307 -4 q 241 -11 268 -11 q 90 108 90 -11 q 96 166 90 130 l 163 513 l 59 513 l 62 528 l 177 586 l 203 719 l 285 757 l 250 581 l 428 581 "},"^":{"x_min":190.296875,"x_max":568.09375,"ha":611,"o":"m 568 674 l 491 674 l 408 808 l 275 674 l 190 674 l 398 881 l 441 881 l 568 674 "},"«":{"x_min":58.34375,"x_max":530.59375,"ha":558,"o":"m 530 467 l 336 236 l 441 13 l 361 13 l 259 242 l 450 467 l 530 467 m 329 467 l 134 236 l 240 13 l 159 13 l 58 242 l 248 467 l 329 467 "},"í":{"x_min":36.109375,"x_max":444.484375,"ha":264,"o":"m 444 807 l 172 660 l 151 703 l 405 881 l 444 807 m 226 581 l 113 0 l 36 0 l 150 581 l 226 581 "},"ˆ":{"x_min":191.6875,"x_max":569.484375,"ha":611,"o":"m 569 674 l 493 674 l 409 808 l 276 674 l 191 674 l 400 881 l 443 881 l 569 674 "},"ū":{"x_min":58,"x_max":607,"ha":635,"o":"m 603 581 l 491 0 l 416 0 l 435 97 q 205 -11 314 -11 q 95 30 132 -11 q 58 140 58 72 q 64 208 58 169 l 138 581 l 216 581 l 143 214 q 137 157 137 185 q 238 56 137 56 q 445 164 330 56 l 525 581 l 603 581 m 607 779 l 594 712 l 206 712 l 220 779 l 607 779 "},"Ẅ":{"x_min":187.515625,"x_max":1402.890625,"ha":1311,"o":"m 705 1140 q 666 1156 683 1140 q 650 1195 650 1172 q 666 1236 650 1219 q 705 1252 682 1252 q 745 1236 729 1252 q 762 1195 762 1219 q 745 1156 762 1172 q 705 1140 729 1140 m 982 1236 q 998 1195 998 1219 q 982 1156 998 1172 q 943 1140 966 1140 q 903 1156 919 1140 q 887 1195 887 1172 q 903 1236 887 1219 q 943 1252 919 1252 q 982 1236 966 1252 m 1402 1018 l 934 -14 l 913 -17 l 759 855 l 275 -17 l 252 -14 l 187 1018 l 265 1018 l 313 184 l 782 1024 l 798 1024 l 950 177 l 1316 1018 l 1402 1018 "},"ņ":{"x_min":30.90625,"x_max":578,"ha":635,"o":"m 291 -169 q 244 -277 291 -226 q 131 -364 197 -329 l 119 -345 q 230 -219 205 -277 q 190 -198 205 -214 q 175 -157 175 -181 q 191 -117 175 -134 q 231 -101 208 -101 q 272 -119 254 -101 q 291 -169 291 -138 m 578 440 q 569 372 578 408 l 497 0 l 419 0 l 492 366 q 499 423 499 405 q 471 498 499 472 q 396 525 444 525 q 190 416 305 525 l 108 0 l 30 0 l 144 581 l 218 581 l 198 483 q 429 590 319 590 q 539 549 501 590 q 578 440 578 508 "},"ỳ":{"x_min":-27.78125,"x_max":627.828125,"ha":583,"o":"m 627 581 l 52 -300 l -27 -300 l 202 48 l 69 581 l 145 581 l 254 119 l 543 581 l 627 581 m 418 701 l 387 660 l 134 814 l 183 881 l 418 701 "},"č":{"x_min":54,"x_max":627.828125,"ha":572,"o":"m 627 879 l 419 672 l 377 672 l 250 879 l 327 879 l 411 744 l 543 879 l 627 879 m 575 522 l 534 465 q 372 525 462 525 q 198 444 268 525 q 128 253 128 364 q 184 109 128 162 q 326 56 240 56 q 465 89 396 56 l 482 26 q 314 -11 393 -11 q 127 60 201 -11 q 54 250 54 132 q 147 488 54 384 q 383 592 240 592 q 575 522 490 592 "},"’":{"x_min":129.4375,"x_max":303,"ha":219,"o":"m 303 965 q 255 857 303 908 q 141 771 208 807 l 129 789 q 241 915 214 852 q 185 976 185 924 q 201 1016 185 999 q 241 1033 218 1033 q 283 1014 264 1033 q 303 965 303 995 "},"-":{"x_min":72.234375,"x_max":408.359375,"ha":463,"o":"m 408 371 l 394 303 l 72 303 l 86 371 l 408 371 "},"Q":{"x_min":115,"x_max":1117,"ha":1152,"o":"m 1117 570 q 1066 331 1117 448 q 926 129 1016 214 l 1018 26 l 961 -26 l 868 81 q 562 -14 732 -14 q 240 115 366 -14 q 115 448 115 244 q 181 726 115 594 q 377 946 248 859 q 669 1033 506 1033 q 991 903 865 1033 q 1117 570 1117 774 m 1038 572 q 935 851 1038 742 q 668 961 832 961 q 329 810 465 961 q 194 447 194 659 q 296 166 194 275 q 563 57 399 57 q 819 136 707 57 l 637 340 l 694 393 l 878 184 q 1038 572 1038 336 "},"M":{"x_min":48.609375,"x_max":1168.15625,"ha":1163,"o":"m 1168 1031 l 1001 0 l 922 0 l 1062 808 l 565 144 l 551 144 l 302 820 l 127 0 l 48 0 l 283 1030 l 301 1033 l 577 262 l 1147 1033 l 1168 1031 "},"̦":{"x_min":58.34375,"x_max":230.578125,"ha":301,"o":"m 230 -169 q 183 -277 230 -226 q 70 -364 136 -329 l 58 -345 q 169 -219 144 -277 q 129 -198 144 -214 q 113 -157 113 -181 q 130 -117 113 -134 q 170 -101 147 -101 q 211 -119 193 -101 q 230 -169 230 -138 "},"œ":{"x_min":50,"x_max":1037.03125,"ha":1076,"o":"m 1024 281 l 587 281 q 586 243 586 268 q 634 104 586 153 q 776 56 683 56 q 920 83 844 56 q 922 72 922 79 q 926 51 923 65 q 930 28 929 37 l 933 19 q 767 -11 859 -11 q 530 137 581 -11 q 422 29 487 69 q 280 -11 358 -11 q 113 57 177 -11 q 50 236 50 126 q 158 504 50 393 q 362 592 245 592 q 494 553 438 592 q 574 444 551 514 q 826 590 667 590 q 984 524 931 590 q 1037 365 1038 458 q 1024 281 1037 321 m 356 525 q 211 461 277 525 q 124 243 124 376 q 167 107 124 158 q 286 56 211 56 q 431 119 367 56 q 519 337 519 204 q 475 473 519 422 q 356 525 431 525 m 962 342 q 965 373 965 351 q 929 480 965 436 q 820 525 894 525 q 685 473 744 525 q 602 342 627 422 l 962 342 "},"ě":{"x_min":50,"x_max":623.84375,"ha":609,"o":"m 307 -11 q 118 53 186 -11 q 50 233 50 118 q 141 480 50 369 q 365 592 233 592 q 516 528 462 592 q 570 371 570 465 q 557 281 570 326 l 125 281 q 124 240 124 268 q 174 104 124 153 q 315 56 224 56 q 460 83 383 56 q 462 72 461 79 q 465 51 462 65 q 469 28 468 37 l 472 19 q 307 -11 399 -11 m 141 342 l 493 342 q 496 379 496 353 q 461 484 496 443 q 359 525 426 525 q 228 473 289 525 q 141 342 168 421 m 623 879 l 415 672 l 373 672 l 246 879 l 323 879 l 407 744 l 539 879 l 623 879 "},"ŭ":{"x_min":58,"x_max":608.625,"ha":635,"o":"m 604 581 l 491 0 l 416 0 l 436 97 q 205 -11 315 -11 q 95 30 133 -11 q 58 140 58 72 q 65 208 58 169 l 138 581 l 216 581 l 144 214 q 137 157 137 185 q 239 56 137 56 q 445 164 330 56 l 526 581 l 604 581 m 608 851 q 541 717 593 768 q 407 667 490 667 q 287 706 332 667 q 243 811 243 746 q 246 851 243 837 l 313 857 q 310 820 310 845 q 338 749 310 773 q 412 725 366 725 q 497 759 464 725 q 541 856 530 794 l 608 851 "},"{":{"x_min":34.875,"x_max":528.265625,"ha":410,"o":"m 528 1028 l 515 960 l 501 960 q 324 797 353 960 l 268 508 q 231 411 256 444 q 149 360 206 378 q 217 266 217 335 q 210 208 217 247 l 155 -65 q 149 -127 149 -102 q 283 -243 149 -243 l 271 -310 q 77 -136 77 -310 q 86 -55 77 -104 l 141 232 q 146 271 146 255 q 68 331 146 331 l 34 331 l 48 396 l 77 396 q 158 421 132 396 q 194 498 185 447 l 253 801 q 508 1028 296 1028 l 528 1028 "},"#":{"x_min":40.28125,"x_max":763.953125,"ha":783,"o":"m 763 579 l 750 516 l 595 517 l 543 283 l 698 283 l 684 222 l 529 222 l 480 0 l 411 0 l 459 222 l 263 222 l 213 0 l 144 0 l 194 222 l 40 222 l 52 283 l 208 283 l 259 516 l 104 516 l 118 579 l 273 579 l 322 802 l 393 802 l 343 579 l 538 579 l 588 802 l 658 802 l 609 579 l 763 579 m 526 516 l 329 516 l 277 283 l 473 283 l 526 516 "},"Ê":{"x_min":61.109375,"x_max":822.28125,"ha":765,"o":"m 744 1118 l 668 1118 l 584 1252 l 451 1118 l 366 1118 l 575 1325 l 618 1325 l 744 1118 m 822 1018 l 808 949 l 325 949 l 247 551 l 683 551 l 669 482 l 234 482 l 154 71 l 638 71 l 625 0 l 61 0 l 259 1018 l 822 1018 "},")":{"x_min":-114.8125,"x_max":435,"ha":483,"o":"m 435 480 q 294 25 435 239 q -88 -304 154 -187 l -114 -244 q 231 54 100 -145 q 363 478 363 254 q 303 758 363 628 q 126 983 243 889 l 171 1035 q 435 480 435 814 "},"ș":{"x_min":-3.75,"x_max":464.40625,"ha":488,"o":"m 214 -169 q 167 -277 214 -226 q 54 -364 119 -329 l 41 -345 q 153 -219 128 -277 q 112 -198 128 -214 q 97 -157 97 -181 q 114 -117 97 -134 q 155 -101 130 -101 q 195 -119 177 -101 q 214 -169 214 -138 m 464 526 l 421 471 q 283 528 354 528 q 195 498 228 528 q 163 429 163 468 q 190 373 163 395 q 272 323 217 351 q 369 255 337 288 q 402 169 402 222 q 344 39 402 92 q 199 -13 286 -13 q -3 68 87 -13 l 42 122 q 204 52 122 52 q 296 81 262 52 q 331 157 331 111 q 303 217 331 193 q 219 270 276 241 q 155 307 177 291 q 113 352 133 323 q 94 419 94 381 q 150 541 94 490 q 294 592 207 592 q 464 526 389 592 "},"Å":{"x_min":-45.671875,"x_max":834.9375,"ha":910,"o":"m 753 1148 q 712 1040 753 1089 q 612 986 672 991 l 834 0 l 753 0 l 688 313 l 226 313 l 37 0 l -45 0 l 561 990 q 500 1032 523 1001 q 478 1104 478 1062 q 523 1217 478 1168 q 633 1267 568 1267 q 718 1233 684 1267 q 753 1148 753 1200 m 672 378 l 568 875 l 266 378 l 672 378 m 696 1143 q 677 1200 696 1179 q 629 1221 658 1221 q 563 1187 591 1221 q 535 1108 535 1154 q 553 1052 535 1072 q 603 1032 572 1032 q 668 1064 640 1032 q 696 1143 696 1097 "},"¸":{"x_min":61.859375,"x_max":365,"ha":611,"o":"m 365 -197 q 319 -291 365 -254 q 204 -329 274 -329 q 61 -281 132 -329 l 95 -231 q 209 -272 152 -272 q 272 -253 247 -272 q 298 -201 298 -234 q 268 -152 298 -173 q 172 -123 238 -130 l 170 -115 l 234 19 l 285 6 l 245 -83 q 365 -197 365 -115 "},"a":{"x_min":31,"x_max":525,"ha":586,"o":"m 525 415 q 517 339 525 389 l 448 0 l 375 0 l 387 62 q 205 -11 305 -11 q 82 34 133 -11 q 31 155 31 79 q 96 296 31 239 q 268 353 161 353 q 431 307 359 353 l 440 353 q 447 406 447 392 q 409 490 447 458 q 308 523 371 523 q 159 495 238 523 l 151 564 q 317 592 240 592 q 467 546 410 592 q 525 415 525 501 m 420 244 q 266 292 363 292 q 150 254 195 292 q 105 161 105 217 q 136 81 105 110 q 224 52 168 52 q 398 132 314 52 l 420 244 "},"Ę":{"x_min":60.75,"x_max":821.859375,"ha":765,"o":"m 821 1018 l 807 949 l 324 949 l 246 551 l 682 551 l 669 482 l 234 482 l 153 71 l 638 71 l 624 0 l 577 0 q 557 -17 574 -2 q 532 -38 539 -31 q 507 -61 524 -45 q 482 -86 491 -76 q 460 -111 473 -95 q 441 -140 448 -127 q 430 -167 435 -152 q 426 -197 426 -183 q 469 -247 426 -247 q 553 -199 503 -247 l 584 -235 q 451 -304 520 -304 q 382 -281 407 -305 q 358 -215 358 -256 q 502 0 358 -119 l 60 0 l 259 1018 l 821 1018 "},"=":{"x_min":73.609375,"x_max":518.09375,"ha":551,"o":"m 479 325 l 466 257 l 73 257 l 86 325 l 479 325 m 518 522 l 504 453 l 111 453 l 125 522 l 518 522 "},"˚":{"x_min":263,"x_max":538,"ha":612,"o":"m 538 833 q 492 720 538 770 q 382 670 447 670 q 297 704 331 670 q 263 789 263 738 q 308 902 263 853 q 418 952 353 952 q 503 918 469 952 q 538 833 538 885 m 481 828 q 461 885 481 864 q 412 906 442 906 q 348 872 376 906 q 320 793 320 839 q 338 737 320 757 q 386 717 357 717 q 452 749 424 717 q 481 828 481 782 "},"ú":{"x_min":58,"x_max":626.4375,"ha":635,"o":"m 626 807 l 354 660 l 333 703 l 587 881 l 626 807 m 603 581 l 491 0 l 416 0 l 435 97 q 205 -11 314 -11 q 95 30 132 -11 q 58 140 58 72 q 64 208 58 169 l 138 581 l 216 581 l 143 214 q 137 157 137 185 q 238 56 137 56 q 445 164 330 56 l 525 581 l 603 581 "},"¯":{"x_min":191.6875,"x_max":591.71875,"ha":611,"o":"m 591 779 l 579 712 l 191 712 l 205 779 l 591 779 "},"Z":{"x_min":11.109375,"x_max":932.015625,"ha":863,"o":"m 932 1004 l 147 71 l 744 71 l 730 0 l 13 0 l 11 13 l 795 949 l 227 949 l 240 1018 l 927 1018 l 932 1004 "},"u":{"x_min":58,"x_max":603.703125,"ha":635,"o":"m 603 581 l 491 0 l 416 0 l 435 97 q 205 -11 314 -11 q 95 30 132 -11 q 58 140 58 72 q 64 208 58 169 l 138 581 l 216 581 l 143 214 q 137 157 137 185 q 238 56 137 56 q 445 164 330 56 l 525 581 l 603 581 "},"k":{"x_min":31.953125,"x_max":593.109375,"ha":550,"o":"m 593 581 l 238 300 l 491 0 l 404 0 l 163 287 l 108 0 l 31 0 l 229 1018 l 305 1018 l 170 322 l 490 581 l 593 581 "},"Ù":{"x_min":124,"x_max":995.125,"ha":965,"o":"m 995 1018 l 863 342 q 453 -14 793 -14 q 212 70 300 -14 q 124 301 124 155 q 136 412 124 344 l 253 1018 l 332 1018 l 213 400 q 202 304 202 347 q 271 122 202 188 q 467 57 340 57 q 678 129 599 57 q 786 356 757 201 l 915 1018 l 995 1018 m 690 1127 l 659 1086 l 406 1240 l 455 1307 l 690 1127 "},"Ů":{"x_min":124,"x_max":995.125,"ha":965,"o":"m 801 1259 q 755 1146 801 1196 q 645 1096 710 1096 q 560 1130 594 1096 q 526 1215 526 1164 q 571 1328 526 1279 q 681 1378 616 1378 q 766 1344 732 1378 q 801 1259 801 1311 m 744 1254 q 724 1311 744 1290 q 675 1332 705 1332 q 611 1298 639 1332 q 583 1219 583 1265 q 601 1163 583 1183 q 649 1143 620 1143 q 715 1175 687 1143 q 744 1254 744 1208 m 995 1018 l 863 342 q 453 -14 793 -14 q 212 70 300 -14 q 124 301 124 155 q 136 412 124 344 l 253 1018 l 332 1018 l 213 400 q 202 304 202 347 q 271 122 202 188 q 467 57 340 57 q 678 129 599 57 q 786 356 757 201 l 915 1018 l 995 1018 "},"¢":{"x_min":56,"x_max":582.421875,"ha":608,"o":"m 468 682 l 443 586 q 582 522 522 572 l 542 465 q 425 518 489 507 l 304 57 q 332 55 312 55 q 472 89 403 55 l 489 27 q 317 -11 401 -11 q 301 -10 311 -11 q 286 -10 292 -10 l 260 -114 l 193 -107 l 222 4 q 101 93 147 30 q 56 249 56 156 q 146 484 56 381 q 375 591 236 586 l 401 689 l 468 682 m 130 252 q 239 72 130 119 l 356 522 q 193 434 256 513 q 130 252 130 355 "},"Ş":{"x_min":4.46875,"x_max":722.484375,"ha":697,"o":"m 410 -197 q 364 -291 410 -254 q 249 -329 319 -329 q 106 -281 177 -329 l 140 -231 q 254 -272 197 -272 q 318 -253 293 -272 q 343 -201 343 -234 q 313 -151 343 -173 q 218 -123 283 -130 l 215 -115 l 264 -11 q 4 105 119 5 l 48 166 q 311 58 178 58 q 482 114 419 58 q 546 264 546 171 q 532 335 546 302 q 489 396 519 367 q 434 444 459 426 q 364 494 409 463 q 293 544 319 523 q 235 597 267 564 q 188 667 203 630 q 174 751 174 705 q 260 951 174 870 q 479 1033 346 1033 q 722 942 615 1033 l 679 881 q 472 961 583 961 q 312 903 371 961 q 253 759 253 845 q 293 650 253 694 q 423 548 333 606 q 498 495 473 515 q 558 440 523 476 q 609 364 593 405 q 625 273 625 323 q 543 70 625 152 q 321 -14 461 -11 l 290 -83 q 410 -197 410 -115 "},"é":{"x_min":50,"x_max":626.4375,"ha":609,"o":"m 307 -11 q 118 53 186 -11 q 50 233 50 118 q 141 480 50 369 q 365 592 233 592 q 516 528 462 592 q 570 371 570 465 q 557 281 570 326 l 125 281 q 124 240 124 268 q 174 104 124 153 q 315 56 224 56 q 460 83 383 56 q 462 72 461 79 q 465 51 462 65 q 469 28 468 37 l 472 19 q 307 -11 399 -11 m 141 342 l 493 342 q 496 379 496 353 q 461 484 496 443 q 359 525 426 525 q 228 473 289 525 q 141 342 168 421 m 626 807 l 354 660 l 333 703 l 587 881 l 626 807 "},"B":{"x_min":64.84375,"x_max":760,"ha":761,"o":"m 760 783 q 691 614 760 686 q 505 516 623 543 q 701 291 701 454 q 600 74 701 159 q 299 -10 499 -10 q 64 21 203 -10 l 259 1011 q 442 1028 355 1028 q 676 956 592 1028 q 760 783 760 884 m 679 776 q 615 908 679 857 q 440 960 551 960 q 324 948 380 960 l 248 559 q 360 553 317 553 q 595 613 512 553 q 679 776 679 673 m 622 281 q 542 436 622 379 q 317 493 462 493 q 235 490 262 493 l 155 77 q 326 58 234 58 q 541 121 460 58 q 622 281 622 185 "},"…":{"x_min":38,"x_max":712,"ha":838,"o":"m 156 47 q 138 6 156 23 q 96 -11 121 -11 q 55 6 72 -11 q 38 47 38 23 q 55 89 38 72 q 96 107 72 107 q 138 89 121 107 q 156 47 156 72 m 434 47 q 416 6 434 23 q 374 -11 399 -11 q 333 6 350 -11 q 316 47 316 23 q 333 89 316 72 q 374 107 350 107 q 416 89 399 107 q 434 47 434 72 m 712 47 q 694 6 712 23 q 652 -11 677 -11 q 611 6 628 -11 q 594 47 594 23 q 611 89 594 72 q 652 107 628 107 q 694 89 677 107 q 712 47 712 72 "},"ē":{"x_min":50,"x_max":607,"ha":609,"o":"m 307 -11 q 118 53 186 -11 q 50 233 50 118 q 141 480 50 369 q 365 592 233 592 q 516 528 462 592 q 570 371 570 465 q 557 281 570 326 l 125 281 q 124 240 124 268 q 174 104 124 153 q 315 56 224 56 q 460 83 383 56 q 462 72 461 79 q 465 51 462 65 q 469 28 468 37 l 472 19 q 307 -11 399 -11 m 141 342 l 493 342 q 496 379 496 353 q 461 484 496 443 q 359 525 426 525 q 228 473 289 525 q 141 342 168 421 m 607 779 l 594 712 l 206 712 l 220 779 l 607 779 "},"H":{"x_min":61.109375,"x_max":984.796875,"ha":964,"o":"m 984 1018 l 786 0 l 707 0 l 801 484 l 234 484 l 140 0 l 61 0 l 259 1018 l 338 1018 l 248 553 l 815 553 l 905 1018 l 984 1018 "},"î":{"x_min":12.5,"x_max":390.3125,"ha":264,"o":"m 390 673 l 313 673 l 230 808 l 97 673 l 12 673 l 220 881 l 263 881 l 390 673 m 226 581 l 113 0 l 36 0 l 150 581 l 226 581 "},"−":{"x_min":83.34375,"x_max":568.09375,"ha":611,"o":"m 83 357 l 95 425 l 568 425 l 554 357 l 83 357 "},"¥":{"x_min":62.5,"x_max":752.84375,"ha":678,"o":"m 752 801 l 450 432 l 637 432 l 623 365 l 400 365 l 379 261 l 604 261 l 591 194 l 366 194 l 329 0 l 251 0 l 290 194 l 62 194 l 75 261 l 302 261 l 322 365 l 94 365 l 108 432 l 305 431 l 141 801 l 223 801 l 377 444 l 662 801 l 752 801 "},"U":{"x_min":124,"x_max":995.125,"ha":965,"o":"m 995 1018 l 863 342 q 453 -14 793 -14 q 212 70 300 -14 q 124 301 124 155 q 136 412 124 344 l 253 1018 l 332 1018 l 213 400 q 202 304 202 347 q 271 122 202 188 q 467 57 340 57 q 678 129 599 57 q 786 356 757 201 l 915 1018 l 995 1018 "},"Ñ":{"x_min":62.5,"x_max":1015.359375,"ha":996,"o":"m 1015 1018 l 815 -12 l 800 -15 l 305 854 l 138 0 l 62 0 l 262 1029 l 281 1033 l 773 173 l 937 1018 l 1015 1018 m 884 1202 q 740 1117 809 1117 q 658 1152 704 1117 q 586 1186 613 1186 q 493 1127 547 1186 l 456 1169 q 595 1249 527 1249 q 679 1212 632 1249 q 751 1180 725 1180 q 794 1193 775 1180 q 848 1242 813 1206 l 884 1202 "},"F":{"x_min":61.109375,"x_max":822.28125,"ha":742,"o":"m 822 1018 l 808 949 l 325 949 l 244 533 l 680 533 l 666 464 l 230 464 l 140 0 l 61 0 l 259 1018 l 822 1018 "},"ā":{"x_min":31,"x_max":579.21875,"ha":586,"o":"m 525 415 q 517 339 525 389 l 448 0 l 375 0 l 387 62 q 205 -11 305 -11 q 82 34 133 -11 q 31 155 31 79 q 96 296 31 239 q 268 353 161 353 q 431 307 359 353 l 440 353 q 447 406 447 392 q 409 490 447 458 q 308 523 371 523 q 159 495 238 523 l 151 564 q 317 592 240 592 q 467 546 410 592 q 525 415 525 501 m 420 244 q 266 292 363 292 q 150 254 195 292 q 105 161 105 217 q 136 81 105 110 q 224 52 168 52 q 398 132 314 52 l 420 244 m 579 779 l 566 712 l 179 712 l 193 779 l 579 779 "},"←":{"x_min":54.171875,"x_max":936.1875,"ha":988,"o":"m 923 303 l 175 304 l 437 47 l 388 -1 l 54 330 l 56 343 l 520 675 l 555 619 l 201 370 l 936 371 l 923 303 "},"ă":{"x_min":30,"x_max":579.640625,"ha":586,"o":"m 525 415 q 516 339 525 389 l 448 0 l 374 0 l 387 62 q 205 -11 305 -11 q 81 34 132 -11 q 30 155 30 79 q 95 296 30 239 q 267 353 160 353 q 431 307 359 353 l 440 353 q 447 406 447 392 q 409 490 447 458 q 308 523 371 523 q 159 495 238 523 l 151 564 q 317 592 240 592 q 467 546 410 592 q 525 415 525 501 m 419 244 q 265 292 362 292 q 149 254 194 292 q 104 161 104 217 q 135 81 104 110 q 223 52 167 52 q 397 132 313 52 l 419 244 m 579 851 q 512 717 564 768 q 378 667 461 667 q 258 706 303 667 q 214 811 214 746 q 216 851 214 837 l 283 857 q 281 820 281 845 q 309 749 281 773 q 383 725 337 725 q 468 759 435 725 q 512 856 501 794 l 579 851 "},"*":{"x_min":158.34375,"x_max":575.046875,"ha":513,"o":"m 575 804 l 401 787 l 479 633 l 420 607 l 350 765 l 225 646 l 181 691 l 312 805 l 158 886 l 188 941 l 338 853 l 368 1024 l 430 1011 l 394 841 l 566 868 l 575 804 "},"†":{"x_min":140.28125,"x_max":643.109375,"ha":607,"o":"m 643 765 l 630 697 l 423 697 l 330 217 l 255 217 l 348 697 l 140 697 l 152 765 l 361 765 l 411 1018 l 486 1018 l 436 765 l 643 765 "},"°":{"x_min":190,"x_max":458,"ha":497,"o":"m 458 833 q 414 719 458 768 q 306 670 371 670 q 222 704 255 670 q 190 789 190 738 q 233 903 190 854 q 342 952 277 952 q 426 918 394 952 q 458 833 458 885 m 401 828 q 383 885 401 864 q 337 906 366 906 q 274 872 301 906 q 247 793 247 839 q 264 737 247 758 q 310 717 281 717 q 374 749 348 717 q 401 828 401 782 "},"å":{"x_min":30,"x_max":530,"ha":586,"o":"m 524 415 q 515 339 524 389 l 447 0 l 374 0 l 386 62 q 205 -11 305 -11 q 81 34 132 -11 q 30 155 30 79 q 95 296 30 239 q 267 353 160 353 q 431 307 359 353 l 439 353 q 447 406 447 392 q 409 490 447 458 q 308 523 371 523 q 159 495 238 523 l 151 564 q 317 592 240 592 q 467 546 410 592 q 524 415 524 501 m 419 244 q 265 292 362 292 q 149 254 194 292 q 104 161 104 217 q 135 81 104 110 q 223 52 167 52 q 397 132 313 52 l 419 244 m 530 833 q 485 720 530 770 q 375 670 440 670 q 289 704 323 670 q 256 789 256 738 q 300 902 256 853 q 410 952 345 952 q 496 918 462 952 q 530 833 530 885 m 473 828 q 453 885 473 864 q 405 906 434 906 q 341 872 369 906 q 313 793 313 839 q 331 737 313 757 q 379 717 350 717 q 444 749 416 717 q 473 828 473 782 "},"0":{"x_min":78,"x_max":698,"ha":731,"o":"m 698 504 q 656 265 698 380 q 543 80 614 151 q 333 -13 450 -13 q 146 75 214 -13 q 78 296 78 163 q 119 534 78 420 q 230 720 160 648 q 442 814 324 814 q 629 725 561 814 q 698 504 698 637 m 617 499 q 569 678 617 609 q 436 747 522 747 q 293 681 358 747 q 194 514 232 620 q 157 301 157 408 q 204 122 157 191 q 337 54 251 54 q 480 119 415 54 q 579 286 541 180 q 617 499 617 392 "},"ō":{"x_min":49,"x_max":608.5,"ha":643,"o":"m 608 779 l 596 712 l 208 712 l 222 779 l 608 779 m 518 340 q 474 474 518 423 q 355 525 430 525 q 209 459 277 525 q 123 240 123 376 q 166 106 123 157 q 284 56 210 56 q 430 121 365 56 q 518 340 518 205 m 592 344 q 483 76 592 187 q 280 -11 396 -11 q 113 57 177 -11 q 49 236 49 126 q 157 504 49 393 q 360 592 244 592 q 527 523 463 592 q 592 344 592 454 "},"”":{"x_min":129.4375,"x_max":487,"ha":404,"o":"m 487 965 q 439 857 487 908 q 325 771 392 807 l 313 789 q 425 915 398 852 q 369 976 369 924 q 385 1016 369 999 q 425 1033 402 1033 q 467 1014 448 1033 q 487 965 487 995 m 303 965 q 255 857 303 908 q 141 771 208 807 l 129 789 q 241 915 214 852 q 185 976 185 924 q 201 1016 185 999 q 241 1033 218 1033 q 283 1014 264 1033 q 303 965 303 995 "},"ŵ":{"x_min":87.5,"x_max":875.0625,"ha":847,"o":"m 688 673 l 612 673 l 529 808 l 395 673 l 311 673 l 519 881 l 562 881 l 688 673 m 875 581 l 568 -17 l 554 -17 l 455 432 l 181 -17 l 168 -17 l 87 581 l 163 581 l 211 140 l 475 581 l 488 581 l 581 140 l 794 581 l 875 581 "},"Ķ":{"x_min":61.109375,"x_max":902.84375,"ha":813,"o":"m 402 -169 q 355 -277 402 -226 q 243 -364 308 -329 l 230 -345 q 341 -219 316 -277 q 301 -198 316 -214 q 286 -157 286 -181 q 302 -117 286 -134 q 343 -101 319 -101 q 384 -119 365 -101 q 402 -169 402 -138 m 902 1018 l 315 519 l 723 0 l 625 0 l 238 502 l 140 0 l 61 0 l 259 1018 l 338 1018 l 245 542 l 795 1018 l 902 1018 "},"ö":{"x_min":49,"x_max":592,"ha":643,"o":"m 291 695 q 252 711 269 695 q 236 751 236 727 q 252 791 236 775 q 291 808 268 808 q 331 791 315 808 q 348 751 348 775 q 331 711 348 727 q 291 695 315 695 m 568 791 q 584 751 584 775 q 568 711 584 727 q 529 695 552 695 q 489 711 505 695 q 473 751 473 727 q 489 791 473 775 q 529 808 505 808 q 568 791 552 808 m 518 340 q 474 474 518 423 q 355 525 430 525 q 209 459 277 525 q 123 240 123 376 q 166 106 123 157 q 284 56 210 56 q 430 121 365 56 q 518 340 518 205 m 592 344 q 483 76 592 187 q 280 -11 396 -11 q 113 57 177 -11 q 49 236 49 126 q 157 504 49 393 q 360 592 244 592 q 527 523 463 592 q 592 344 592 454 "},"ǽ":{"x_min":31,"x_max":952.03125,"ha":991,"o":"m 217 -11 q 83 33 136 -11 q 31 155 31 77 q 96 296 31 239 q 268 353 161 353 q 432 307 364 353 l 442 357 q 447 406 447 381 q 410 492 447 461 q 308 523 372 523 q 160 495 232 523 l 150 561 q 318 592 235 592 q 440 560 390 592 q 507 471 490 529 q 740 590 597 590 q 899 524 846 590 q 952 365 953 458 q 939 281 952 321 l 501 281 q 499 243 499 256 q 548 104 499 153 q 690 56 597 56 q 835 83 758 56 q 837 72 836 79 q 840 51 838 65 q 845 28 843 37 l 847 19 q 682 -11 774 -11 q 443 137 493 -11 q 350 29 411 69 q 217 -11 289 -11 m 227 51 q 348 103 295 51 q 421 244 402 156 q 266 292 359 292 q 150 254 195 292 q 105 161 105 217 q 137 81 105 110 q 227 51 170 51 m 515 342 l 875 342 q 878 374 878 353 q 842 481 878 436 q 733 525 807 525 q 599 474 657 525 q 515 342 540 422 m 787 807 l 515 660 l 494 703 l 748 881 l 787 807 "},"Ļ":{"x_min":61.109375,"x_max":637.546875,"ha":707,"o":"m 375 -169 q 327 -277 375 -226 q 215 -364 280 -329 l 202 -345 q 313 -219 288 -277 q 273 -198 288 -214 q 258 -157 258 -181 q 275 -117 258 -134 q 315 -101 291 -101 q 356 -119 337 -101 q 375 -169 375 -138 m 637 71 l 623 0 l 61 0 l 259 1018 l 338 1018 l 154 71 l 637 71 "},"Õ":{"x_min":115,"x_max":1117,"ha":1153,"o":"m 1117 570 q 1050 292 1117 424 q 854 72 983 159 q 562 -14 725 -14 q 240 115 366 -14 q 115 448 115 244 q 181 726 115 594 q 377 946 248 859 q 669 1033 506 1033 q 991 903 865 1033 q 1117 570 1117 774 m 1038 572 q 935 851 1038 742 q 668 961 832 961 q 329 810 465 961 q 194 447 194 659 q 296 166 194 275 q 563 57 399 57 q 902 207 766 57 q 1038 572 1038 358 m 965 1220 q 820 1135 890 1135 q 738 1170 784 1135 q 666 1204 694 1204 q 573 1145 627 1204 l 537 1187 q 676 1267 608 1267 q 759 1230 712 1267 q 832 1198 805 1198 q 875 1211 855 1198 q 929 1260 894 1224 l 965 1220 "},"ć":{"x_min":54,"x_max":630.609375,"ha":572,"o":"m 630 807 l 358 660 l 337 703 l 591 881 l 630 807 m 575 522 l 534 465 q 372 525 462 525 q 198 444 268 525 q 128 253 128 364 q 184 109 128 162 q 326 56 240 56 q 465 89 396 56 l 482 26 q 314 -11 393 -11 q 127 60 201 -11 q 54 250 54 132 q 147 488 54 384 q 383 592 240 592 q 575 522 490 592 "},"þ":{"x_min":-28,"x_max":604,"ha":657,"o":"m 604 350 q 510 98 604 207 q 278 -11 417 -11 q 117 47 185 -11 l 49 -300 l -28 -300 l 228 1018 l 305 1018 l 212 530 q 385 591 290 591 q 542 522 481 591 q 604 350 604 454 m 528 337 q 482 473 528 422 q 364 523 437 523 q 198 455 273 523 l 132 120 q 283 57 191 57 q 457 141 386 57 q 528 337 528 225 "},"]":{"x_min":-80.5625,"x_max":440.3125,"ha":374,"o":"m 440 1018 l 184 -300 l -80 -300 l -68 -236 l 126 -236 l 356 954 l 163 954 l 176 1018 l 440 1018 "},"ẁ":{"x_min":87.5,"x_max":875.0625,"ha":847,"o":"m 875 581 l 568 -17 l 554 -17 l 455 432 l 181 -17 l 168 -17 l 87 581 l 163 581 l 211 140 l 475 581 l 488 581 l 581 140 l 794 581 l 875 581 m 558 701 l 527 660 l 275 814 l 323 881 l 558 701 "},"ĭ":{"x_min":36.109375,"x_max":420.625,"ha":264,"o":"m 226 581 l 113 0 l 36 0 l 150 581 l 226 581 m 420 851 q 353 717 405 768 q 219 667 302 667 q 99 706 144 667 q 55 811 55 746 q 57 851 55 837 l 124 857 q 122 820 122 845 q 150 749 122 773 q 224 725 178 725 q 309 759 276 725 q 353 856 342 794 l 420 851 "},"8":{"x_min":67,"x_max":629,"ha":647,"o":"m 629 616 q 585 483 629 541 q 465 399 542 426 q 542 326 514 371 q 570 224 570 280 q 493 55 570 124 q 307 -13 417 -13 q 135 43 204 -13 q 67 196 67 100 q 116 336 67 274 q 248 420 166 398 q 158 580 158 474 q 229 744 158 674 q 406 814 301 814 q 565 758 501 814 q 629 616 629 702 m 555 609 q 513 710 555 670 q 405 750 472 750 q 281 700 331 750 q 232 581 232 651 q 273 477 232 517 q 380 437 314 437 q 504 488 454 437 q 555 609 555 539 m 492 227 q 446 335 492 291 q 329 379 400 379 q 197 326 250 379 q 145 199 145 274 q 192 92 145 133 q 312 51 239 51 q 442 101 392 51 q 492 227 492 152 "},"R":{"x_min":60.984375,"x_max":793,"ha":807,"o":"m 793 745 q 715 536 793 625 q 499 419 638 448 l 712 0 l 619 0 l 419 408 q 374 406 405 406 q 220 416 320 406 l 140 0 l 60 0 l 258 1011 q 447 1025 365 1025 q 702 946 611 1025 q 793 745 793 868 m 712 740 q 644 895 712 836 q 448 954 577 954 q 324 946 380 954 l 234 486 q 382 476 324 476 q 625 548 538 476 q 712 740 712 620 "},"ť":{"x_min":59.453125,"x_max":533.375,"ha":407,"o":"m 456 936 l 533 923 q 359 667 502 756 l 326 699 q 456 936 429 785 m 428 581 l 416 513 l 238 513 l 170 161 q 166 120 166 141 q 263 57 166 57 q 318 61 291 57 l 307 -4 q 241 -11 268 -11 q 90 108 90 -11 q 96 166 90 130 l 163 513 l 59 513 l 62 528 l 177 586 l 203 719 l 285 756 l 250 581 l 428 581 "},"Ľ":{"x_min":61.109375,"x_max":637.546875,"ha":707,"o":"m 545 1013 l 622 1000 q 448 744 591 833 l 415 776 q 545 1013 518 862 m 637 71 l 623 0 l 61 0 l 259 1018 l 338 1018 l 154 71 l 637 71 "},"Ż":{"x_min":11.109375,"x_max":932.015625,"ha":863,"o":"m 932 1004 l 147 71 l 744 71 l 730 0 l 13 0 l 11 13 l 795 949 l 227 949 l 240 1018 l 927 1018 l 932 1004 m 644 1236 q 661 1195 661 1219 q 644 1156 661 1172 q 604 1140 627 1140 q 564 1156 580 1140 q 548 1195 548 1172 q 564 1236 548 1219 q 604 1252 580 1252 q 644 1236 627 1252 "},"o":{"x_min":49,"x_max":592,"ha":641,"o":"m 518 340 q 474 474 518 423 q 355 525 430 525 q 209 459 277 525 q 123 240 123 376 q 166 106 123 157 q 284 56 210 56 q 430 121 365 56 q 518 340 518 205 m 592 344 q 483 76 592 187 q 280 -11 396 -11 q 113 57 177 -11 q 49 236 49 126 q 157 504 49 393 q 360 592 244 592 q 527 523 463 592 q 592 344 592 454 "},"5":{"x_min":33.140625,"x_max":614.953125,"ha":639,"o":"m 614 801 l 601 732 l 273 732 l 223 475 q 240 475 228 475 q 258 476 251 476 q 476 413 395 476 q 558 246 558 350 q 474 61 558 135 q 256 -13 390 -13 q 33 42 151 -13 l 66 105 q 258 54 172 54 q 415 105 352 54 q 479 238 479 156 q 413 367 479 323 q 237 411 348 411 q 151 407 222 411 l 141 418 l 215 801 l 614 801 "},"ħ":{"x_min":30.90625,"x_max":578,"ha":635,"o":"m 578 440 q 569 372 578 408 l 497 0 l 419 0 l 492 366 q 499 423 499 405 q 471 498 499 472 q 396 525 444 525 q 190 416 304 525 l 108 0 l 30 0 l 185 792 l 104 792 l 117 859 l 197 859 l 229 1018 l 307 1018 l 275 859 l 476 859 l 464 792 l 261 792 l 201 486 q 429 590 319 590 q 539 549 501 590 q 578 440 578 508 "},"õ":{"x_min":49,"x_max":627.109375,"ha":643,"o":"m 518 340 q 474 474 518 423 q 355 525 430 525 q 209 459 277 525 q 123 240 123 376 q 166 106 123 157 q 284 56 210 56 q 430 121 365 56 q 518 340 518 205 m 592 344 q 483 76 592 187 q 280 -11 396 -11 q 113 57 177 -11 q 49 236 49 126 q 157 504 49 393 q 360 592 244 592 q 527 523 463 592 q 592 344 592 454 m 627 776 q 482 691 552 691 q 400 726 446 691 q 328 760 356 760 q 235 701 289 760 l 199 743 q 338 823 270 823 q 421 786 374 823 q 493 754 467 754 q 536 767 517 754 q 591 816 556 780 l 627 776 "},",":{"x_min":-31.953125,"x_max":141.671875,"ha":253,"o":"m 141 38 q 94 -68 141 -18 q -19 -157 47 -119 l -31 -138 q 80 -11 52 -73 q 39 9 55 -8 q 23 50 23 26 q 40 90 23 73 q 80 107 56 107 q 122 88 102 107 q 141 38 141 69 "},"d":{"x_min":53,"x_max":710,"ha":657,"o":"m 710 1018 l 512 0 l 437 0 l 448 51 q 276 -11 369 -11 q 118 58 183 -11 q 53 233 53 127 q 146 483 53 375 q 378 592 240 592 q 539 530 475 592 l 632 1018 l 710 1018 m 524 459 q 374 525 463 525 q 199 443 270 525 q 129 248 129 361 q 174 108 129 159 q 295 56 219 56 q 458 120 385 56 l 524 459 "},"\"":{"x_min":129.171875,"x_max":558.375,"ha":483,"o":"m 373 889 l 166 658 l 129 687 l 304 940 l 373 889 m 558 876 l 350 643 l 313 672 l 490 926 l 558 876 "},"˙":{"x_min":340.3125,"x_max":452.8125,"ha":611,"o":"m 436 791 q 452 751 452 775 q 436 711 452 727 q 395 695 419 695 q 356 711 372 695 q 340 751 340 727 q 356 791 340 775 q 395 808 372 808 q 436 791 419 808 "},"ê":{"x_min":50,"x_max":578,"ha":609,"o":"m 307 -11 q 118 53 186 -11 q 50 233 50 118 q 141 480 50 369 q 365 592 233 592 q 516 528 462 592 q 570 371 570 465 q 557 281 570 326 l 125 281 q 124 240 124 268 q 174 104 124 153 q 315 56 224 56 q 460 83 383 56 q 462 72 461 79 q 465 51 462 65 q 469 28 468 37 l 472 19 q 307 -11 399 -11 m 141 342 l 493 342 q 496 379 496 353 q 461 484 496 443 q 359 525 426 525 q 228 473 288 525 q 141 342 168 421 m 578 674 l 502 674 l 418 808 l 284 674 l 200 674 l 408 881 l 451 881 l 578 674 "},"„":{"x_min":-51.578125,"x_max":307,"ha":404,"o":"m 307 38 q 259 -68 307 -18 q 145 -157 212 -119 l 133 -138 q 245 -11 218 -73 q 204 8 220 -8 q 189 50 189 25 q 205 90 189 73 q 245 107 222 107 q 287 88 268 107 q 307 38 307 69 m 122 38 q 74 -68 122 -18 q -39 -157 27 -119 l -51 -138 q 60 -11 33 -73 q 19 8 35 -8 q 4 50 4 25 q 20 90 4 73 q 60 107 37 107 q 102 88 83 107 q 122 38 122 69 "},"ľ":{"x_min":34.71875,"x_max":515.3125,"ha":263,"o":"m 438 1020 l 515 1007 q 341 751 484 840 l 308 783 q 438 1020 411 869 m 308 1018 l 111 0 l 34 0 l 231 1018 l 308 1018 "},"Â":{"x_min":-45.84375,"x_max":834.78125,"ha":910,"o":"m 834 0 l 752 0 l 687 312 l 226 312 l 37 0 l -45 0 l 588 1035 l 601 1035 l 834 0 m 672 377 l 568 875 l 266 377 l 672 377 m 797 1118 l 720 1118 l 637 1252 l 504 1118 l 419 1118 l 627 1325 l 670 1325 l 797 1118 "},"Į":{"x_min":-64,"x_max":344.296875,"ha":328,"o":"m 344 1018 l 145 0 l 141 0 q 75 -63 97 -41 q 29 -124 54 -84 q 4 -195 4 -163 q 47 -247 4 -247 q 131 -199 81 -247 l 162 -235 q 27 -304 98 -304 q -39 -281 -15 -305 q -64 -215 -64 -256 q 69 0 -64 -120 l 67 0 l 266 1018 l 344 1018 "},"ė":{"x_min":50,"x_max":570,"ha":609,"o":"m 307 -11 q 118 53 186 -11 q 50 233 50 118 q 141 480 50 369 q 365 592 233 592 q 516 528 462 592 q 570 371 570 465 q 557 281 570 326 l 125 281 q 124 240 124 268 q 174 104 124 153 q 315 56 224 56 q 460 83 383 56 q 462 72 461 79 q 465 51 462 65 q 469 28 468 37 l 472 19 q 307 -11 399 -11 m 141 342 l 493 342 q 496 379 496 353 q 461 484 496 443 q 359 525 426 525 q 228 473 289 525 q 141 342 168 421 m 447 791 q 463 751 463 775 q 447 711 463 727 q 406 695 430 695 q 367 711 383 695 q 351 751 351 727 q 367 791 351 775 q 406 808 383 808 q 447 791 430 808 "},"Ţ":{"x_min":152.796875,"x_max":911.1875,"ha":803,"o":"m 376 -169 q 329 -277 376 -226 q 216 -364 281 -329 l 204 -345 q 315 -219 290 -277 q 275 -198 290 -214 q 259 -157 259 -181 q 276 -117 259 -134 q 316 -101 293 -101 q 357 -119 338 -101 q 376 -169 376 -138 m 911 1018 l 897 946 l 562 946 l 379 0 l 301 0 l 484 946 l 152 946 l 166 1018 l 911 1018 "},"Í":{"x_min":68.0625,"x_max":563.9375,"ha":328,"o":"m 344 1018 l 145 0 l 68 0 l 266 1018 l 344 1018 m 563 1251 l 291 1104 l 270 1147 l 525 1325 l 563 1251 "},"´":{"x_min":236.125,"x_max":529.203125,"ha":611,"o":"m 529 807 l 256 660 l 236 703 l 490 881 l 529 807 "},"Ú":{"x_min":124,"x_max":995.125,"ha":965,"o":"m 869 1233 l 597 1086 l 576 1129 l 830 1307 l 869 1233 m 995 1018 l 863 342 q 453 -14 793 -14 q 212 70 300 -14 q 124 301 124 155 q 136 412 124 344 l 253 1018 l 332 1018 l 213 400 q 202 304 202 347 q 271 122 202 188 q 467 57 340 57 q 678 129 599 57 q 786 356 757 201 l 915 1018 l 995 1018 "}," ":{"x_min":0,"x_max":0,"ha":185},"Ŷ":{"x_min":162.515625,"x_max":938.96875,"ha":820,"o":"m 938 1018 l 483 454 l 394 0 l 316 0 l 405 456 l 162 1018 l 241 1018 l 455 522 l 848 1018 l 938 1018 m 755 1100 l 679 1100 l 595 1234 l 462 1100 l 377 1100 l 586 1307 l 629 1307 l 755 1100 "},"Ý":{"x_min":162.515625,"x_max":938.96875,"ha":820,"o":"m 938 1018 l 483 454 l 394 0 l 316 0 l 405 456 l 162 1018 l 241 1018 l 455 522 l 848 1018 l 938 1018 m 802 1233 l 530 1086 l 509 1129 l 763 1307 l 802 1233 "}," ":{"x_min":0,"x_max":0,"ha":1389},"ą":{"x_min":30,"x_max":525,"ha":586,"o":"m 447 -235 q 314 -304 383 -304 q 245 -281 270 -305 q 221 -215 221 -256 q 376 10 221 -117 l 387 62 q 205 -11 305 -11 q 81 34 132 -11 q 30 155 30 79 q 95 296 30 239 q 267 353 160 353 q 431 307 359 353 l 440 353 q 447 406 447 392 q 409 490 447 458 q 308 523 371 523 q 159 495 238 523 l 151 564 q 317 592 240 592 q 467 546 410 592 q 525 415 525 501 q 516 339 525 389 l 448 0 l 439 0 q 419 -17 436 -2 q 394 -38 402 -31 q 370 -61 387 -45 q 345 -86 353 -76 q 323 -111 336 -95 q 304 -140 311 -127 q 293 -167 298 -152 q 289 -197 289 -183 q 332 -247 289 -247 q 416 -199 366 -247 l 447 -235 m 419 244 q 265 292 362 292 q 149 254 194 292 q 104 161 104 217 q 135 81 104 110 q 223 52 167 52 q 397 132 313 52 l 419 244 "},"Ö":{"x_min":115,"x_max":1117,"ha":1153,"o":"m 669 1236 q 686 1195 686 1219 q 669 1156 686 1172 q 629 1140 652 1140 q 589 1156 605 1140 q 573 1195 573 1172 q 589 1236 573 1219 q 629 1252 605 1252 q 669 1236 652 1252 m 905 1236 q 922 1195 922 1219 q 905 1156 922 1172 q 866 1140 888 1140 q 827 1156 844 1140 q 811 1195 811 1172 q 827 1236 811 1219 q 866 1252 843 1252 q 905 1236 890 1252 m 1117 570 q 1050 292 1117 424 q 854 72 983 159 q 562 -14 725 -14 q 240 115 366 -14 q 115 448 115 244 q 181 726 115 594 q 377 946 248 859 q 669 1033 506 1033 q 991 903 865 1033 q 1117 570 1117 774 m 1038 572 q 935 851 1038 742 q 668 961 832 961 q 329 810 465 961 q 194 447 194 659 q 296 166 194 275 q 563 57 399 57 q 902 207 766 57 q 1038 572 1038 358 "},"z":{"x_min":-34.71875,"x_max":572.265625,"ha":549,"o":"m 572 567 l 95 65 l 466 65 l 454 0 l -31 0 l -34 12 l 443 516 l 91 516 l 104 581 l 570 581 l 572 567 "},"™":{"x_min":122.234375,"x_max":733.390625,"ha":675,"o":"m 686 715 l 637 715 l 670 902 l 544 753 l 538 753 l 469 902 l 430 715 l 380 715 l 454 1022 l 461 1022 l 554 823 l 725 1022 l 733 1022 l 686 715 m 363 972 l 268 972 l 218 715 l 168 715 l 218 972 l 122 972 l 131 1018 l 373 1018 l 363 972 "},"Ř":{"x_min":60.984375,"x_max":793,"ha":807,"o":"m 793 745 q 715 536 793 625 q 499 419 638 448 l 712 0 l 619 0 l 419 408 q 374 406 405 406 q 220 416 320 406 l 140 0 l 60 0 l 258 1011 q 447 1025 365 1025 q 702 946 611 1025 q 793 745 793 868 m 712 740 q 644 895 712 836 q 448 954 577 954 q 324 946 380 954 l 234 486 q 382 476 324 476 q 625 548 538 476 q 712 740 712 620 m 774 1324 l 566 1117 l 524 1117 l 397 1324 l 474 1324 l 558 1189 l 690 1324 l 774 1324 "},"ã":{"x_min":31,"x_max":597.453125,"ha":586,"o":"m 525 415 q 517 339 525 389 l 448 0 l 375 0 l 387 62 q 205 -11 305 -11 q 82 34 133 -11 q 31 155 31 79 q 96 296 31 239 q 268 353 161 353 q 431 307 359 353 l 440 353 q 447 406 447 392 q 409 490 447 458 q 308 523 371 523 q 159 495 238 523 l 151 564 q 317 592 240 592 q 467 546 410 592 q 525 415 525 501 m 420 244 q 266 292 363 292 q 150 254 195 292 q 105 161 105 217 q 136 81 105 110 q 224 52 168 52 q 398 132 314 52 l 420 244 m 597 776 q 453 691 522 691 q 371 726 416 691 q 298 760 326 760 q 205 701 259 760 l 169 743 q 308 823 240 823 q 391 786 344 823 q 464 754 437 754 q 507 767 487 754 q 561 816 526 780 l 597 776 "},"Ň":{"x_min":62.5,"x_max":1015.359375,"ha":996,"o":"m 883 1306 l 675 1099 l 633 1099 l 505 1306 l 583 1306 l 666 1171 l 798 1306 l 883 1306 m 1015 1018 l 815 -12 l 800 -15 l 305 854 l 138 0 l 62 0 l 262 1029 l 281 1033 l 773 173 l 937 1018 l 1015 1018 "},"æ":{"x_min":31,"x_max":952.03125,"ha":991,"o":"m 217 -11 q 83 33 136 -11 q 31 155 31 77 q 96 296 31 239 q 268 353 161 353 q 432 307 364 353 l 442 357 q 447 406 447 381 q 410 492 447 461 q 308 523 372 523 q 160 495 232 523 l 150 561 q 318 592 235 592 q 440 560 390 592 q 507 471 490 529 q 740 590 597 590 q 899 524 846 590 q 952 365 953 458 q 939 281 952 321 l 501 281 q 499 243 499 256 q 548 104 499 153 q 690 56 597 56 q 835 83 758 56 q 837 72 836 79 q 840 51 838 65 q 845 28 843 37 l 847 19 q 682 -11 774 -11 q 443 137 493 -11 q 350 29 411 69 q 217 -11 289 -11 m 227 51 q 348 103 295 51 q 421 244 402 156 q 266 292 359 292 q 150 254 195 292 q 105 161 105 217 q 137 81 105 110 q 227 51 170 51 m 515 342 l 875 342 q 878 374 878 353 q 842 481 878 436 q 733 525 807 525 q 599 474 657 525 q 515 342 540 422 "},"É":{"x_min":61.109375,"x_max":822.28125,"ha":765,"o":"m 793 1251 l 520 1104 l 500 1147 l 754 1325 l 793 1251 m 822 1018 l 808 949 l 325 949 l 247 551 l 683 551 l 669 482 l 234 482 l 154 71 l 638 71 l 625 0 l 61 0 l 259 1018 l 822 1018 "},"ŀ":{"x_min":34.71875,"x_max":408.359375,"ha":361,"o":"m 308 1018 l 111 0 l 34 0 l 231 1018 l 308 1018 m 295 508 q 311 548 295 531 q 351 565 327 565 q 391 548 375 565 q 408 508 408 531 q 391 468 408 484 q 351 452 375 452 q 311 469 327 452 q 295 508 295 486 "},"~":{"x_min":137.515625,"x_max":566.71875,"ha":611,"o":"m 566 533 q 422 447 490 447 q 336 483 390 447 q 266 516 295 516 q 225 503 244 516 q 173 457 205 491 l 137 499 q 277 579 208 579 q 361 542 315 579 q 431 510 404 510 q 475 523 455 510 q 529 574 494 537 l 566 533 "},"Ċ":{"x_min":114,"x_max":1038.125,"ha":1015,"o":"m 1038 909 l 996 847 q 683 961 858 961 q 335 808 476 961 q 195 441 195 656 q 301 163 195 270 q 572 57 408 57 q 871 152 720 57 l 904 88 q 564 -14 745 -14 q 244 113 375 -14 q 114 437 114 240 q 284 859 114 685 q 695 1033 454 1033 q 1038 909 885 1033 m 775 1236 q 791 1195 791 1219 q 775 1156 791 1172 q 734 1140 758 1140 q 695 1156 711 1140 q 679 1195 679 1172 q 695 1236 679 1219 q 734 1252 711 1252 q 775 1236 758 1252 "},"¡":{"x_min":37.5,"x_max":326,"ha":282,"o":"m 326 972 q 308 930 326 947 q 267 913 291 913 q 225 930 242 913 q 208 972 208 947 q 225 1013 208 996 q 267 1031 242 1031 q 308 1013 291 1031 q 326 972 326 996 m 262 791 l 125 0 l 37 0 l 206 797 l 262 791 "},"ẅ":{"x_min":87.5,"x_max":875.0625,"ha":847,"o":"m 400 695 q 361 711 377 695 q 344 751 344 727 q 360 791 344 775 q 400 808 376 808 q 440 791 423 808 q 456 751 456 775 q 440 711 456 727 q 400 695 423 695 m 676 791 q 693 751 693 775 q 677 711 693 727 q 637 695 661 695 q 597 711 613 695 q 581 751 581 727 q 597 791 581 775 q 637 808 613 808 q 676 791 661 808 m 875 581 l 568 -17 l 554 -17 l 455 432 l 181 -17 l 168 -17 l 87 581 l 163 581 l 211 140 l 475 581 l 488 581 l 581 140 l 794 581 l 875 581 "},"[":{"x_min":-4.171875,"x_max":516.703125,"ha":407,"o":"m 516 1018 l 504 954 l 312 954 l 80 -236 l 273 -236 l 261 -300 l -4 -300 l 252 1018 l 516 1018 "},"%":{"x_min":45.84375,"x_max":890.34375,"ha":890,"o":"m 473 649 q 402 467 473 538 q 276 415 349 415 q 166 461 207 415 q 125 579 125 508 q 195 762 125 691 q 321 814 247 814 q 431 767 390 814 q 473 649 473 720 m 890 784 l 86 -24 l 45 17 l 850 825 l 890 784 m 410 645 q 385 726 410 694 q 315 758 361 758 q 240 724 272 758 q 186 583 186 673 q 211 503 186 534 q 280 472 236 472 q 357 503 322 472 q 410 645 410 559 m 811 221 q 740 39 811 110 q 615 -13 690 -13 q 505 33 546 -13 q 465 151 465 80 q 535 334 465 263 q 660 386 589 386 q 770 339 729 386 q 811 221 811 292 m 750 217 q 725 298 750 266 q 655 330 700 330 q 579 296 612 330 q 527 155 527 243 q 551 75 527 106 q 621 44 575 44 q 695 75 664 44 q 750 217 750 130 "},"P":{"x_min":61.15625,"x_max":789,"ha":763,"o":"m 789 717 q 676 456 789 558 q 357 354 563 354 q 211 366 291 354 l 140 0 l 61 0 l 258 1011 q 423 1025 337 1025 q 692 938 597 1025 q 789 717 787 852 m 708 713 q 637 887 708 818 q 428 956 566 956 q 324 946 388 956 l 224 435 q 366 423 309 423 q 619 505 531 423 q 708 713 708 587 "},"_":{"x_min":-56.953125,"x_max":679.21875,"ha":722,"o":"m 679 69 l 666 0 l -56 0 l -43 69 l 679 69 "},"Ŕ":{"x_min":60.984375,"x_max":793,"ha":807,"o":"m 793 745 q 715 536 793 625 q 499 419 638 448 l 712 0 l 619 0 l 419 408 q 374 406 405 406 q 220 416 320 406 l 140 0 l 60 0 l 258 1011 q 447 1025 365 1025 q 702 946 611 1025 q 793 745 793 868 m 712 740 q 644 895 712 836 q 448 954 577 954 q 324 946 380 954 l 234 486 q 382 476 324 476 q 625 548 538 476 q 712 740 712 620 m 777 1251 l 505 1104 l 484 1147 l 738 1325 l 777 1251 "},"ñ":{"x_min":30.90625,"x_max":619.5,"ha":635,"o":"m 578 440 q 569 372 578 408 l 497 0 l 419 0 l 492 366 q 499 423 499 405 q 471 498 499 472 q 396 525 444 525 q 190 416 305 525 l 108 0 l 30 0 l 144 581 l 218 581 l 198 483 q 429 590 319 590 q 539 549 501 590 q 578 440 578 508 m 619 776 q 475 691 544 691 q 393 726 438 691 q 320 760 348 760 q 227 701 281 760 l 191 743 q 330 823 262 823 q 413 786 366 823 q 486 754 459 754 q 529 767 509 754 q 583 816 548 780 l 619 776 "},"‚":{"x_min":-51.390625,"x_max":122.234375,"ha":219,"o":"m 122 38 q 75 -68 122 -18 q -38 -157 27 -119 l -51 -138 q 61 -11 33 -73 q 20 9 36 -8 q 4 50 4 26 q 20 90 4 73 q 61 107 37 107 q 102 88 83 107 q 122 38 122 69 "},"Æ":{"x_min":-45.84375,"x_max":1432.0625,"ha":1375,"o":"m 1432 1018 l 1418 949 l 934 949 l 857 551 l 1293 551 l 1279 482 l 844 482 l 763 71 l 1248 71 l 1234 0 l 672 0 l 737 335 l 345 335 l 44 0 l -45 0 l 869 1018 l 1432 1018 m 750 402 l 845 892 l 404 402 l 750 402 "},"ğ":{"x_min":24.21875,"x_max":643.640625,"ha":660,"o":"m 626 581 l 501 -61 q 211 -314 451 -314 q 24 -275 118 -314 l 52 -208 q 215 -243 133 -243 q 355 -199 304 -243 q 425 -62 407 -156 l 444 37 q 285 -11 369 -11 q 120 58 187 -11 q 53 233 53 127 q 146 483 53 375 q 379 592 240 592 q 543 529 475 592 l 553 581 l 626 581 m 526 459 q 374 525 465 525 q 200 442 272 525 q 129 248 129 359 q 176 108 129 160 q 299 56 223 56 q 458 117 385 56 l 526 459 m 643 851 q 576 717 628 768 q 442 667 525 667 q 322 706 367 667 q 278 811 278 746 q 281 851 278 837 l 348 857 q 345 820 345 845 q 373 749 345 773 q 447 725 401 725 q 532 759 499 725 q 576 856 565 794 l 643 851 "},"Ū":{"x_min":124,"x_max":995.125,"ha":965,"o":"m 995 1018 l 863 342 q 453 -14 793 -14 q 212 70 300 -14 q 124 301 124 155 q 136 412 124 344 l 253 1018 l 332 1018 l 213 400 q 202 304 202 347 q 271 122 202 188 q 467 57 340 57 q 678 129 599 57 q 786 356 757 201 l 915 1018 l 995 1018 m 850 1206 l 837 1139 l 450 1139 l 463 1206 l 850 1206 "},"ª":{"x_min":144,"x_max":525,"ha":485,"o":"m 519 847 l 470 596 l 401 596 l 410 643 q 276 589 353 589 q 182 622 220 589 q 144 712 144 655 q 192 815 144 773 q 322 858 241 858 q 443 824 392 858 l 450 857 q 454 892 454 881 q 342 976 454 976 q 241 955 299 976 l 234 1015 q 355 1036 299 1036 q 481 997 437 1036 q 525 895 525 959 q 519 847 525 870 m 433 776 q 328 808 393 808 q 244 782 276 808 q 213 716 213 756 q 235 662 213 683 q 294 642 257 642 q 417 695 360 642 l 433 776 "},"Œ":{"x_min":116,"x_max":1477.21875,"ha":1422,"o":"m 1477 1018 l 1464 948 l 979 948 l 903 551 l 1338 551 l 1325 482 l 889 482 l 809 71 l 1293 71 l 1279 0 l 748 0 q 707 -3 734 -1 q 657 -7 681 -5 q 609 -10 632 -10 q 245 122 374 -10 q 116 451 116 254 q 292 865 116 702 q 759 1028 468 1028 q 909 1018 824 1028 l 1477 1018 m 606 59 q 730 68 672 59 l 901 947 q 740 960 826 960 q 350 818 503 960 q 197 458 197 676 q 333 145 197 248 q 606 59 440 59 "},"Ą":{"x_min":-46.28125,"x_max":834.28125,"ha":910,"o":"m 827 -235 q 694 -304 763 -304 q 625 -281 650 -305 q 601 -215 601 -256 q 751 4 601 -118 l 687 313 l 225 313 l 37 0 l -46 0 l 588 1035 l 601 1035 l 834 0 l 820 0 q 800 -17 817 -2 q 775 -38 782 -31 q 750 -61 767 -45 q 725 -86 734 -76 q 703 -111 716 -95 q 684 -140 691 -127 q 673 -167 678 -152 q 669 -197 669 -183 q 712 -247 669 -247 q 796 -199 746 -247 l 827 -235 m 672 378 l 567 875 l 266 378 l 672 378 "},"T":{"x_min":152.796875,"x_max":911.1875,"ha":803,"o":"m 911 1018 l 897 946 l 562 946 l 379 0 l 301 0 l 484 946 l 152 946 l 166 1018 l 911 1018 "},"š":{"x_min":-3.75,"x_max":542.34375,"ha":488,"o":"m 542 879 l 334 672 l 291 672 l 163 879 l 241 879 l 325 744 l 457 879 l 542 879 m 464 526 l 421 471 q 283 528 354 528 q 195 498 228 528 q 163 429 163 468 q 190 373 163 395 q 272 323 217 351 q 369 255 337 288 q 402 169 402 222 q 344 39 402 92 q 199 -13 286 -13 q -3 68 87 -13 l 42 122 q 204 52 122 52 q 296 81 262 52 q 331 157 331 111 q 303 217 331 193 q 219 270 276 241 q 155 307 177 291 q 113 352 133 323 q 94 419 94 381 q 150 541 94 490 q 294 592 207 592 q 464 526 389 592 "},"Þ":{"x_min":62.265625,"x_max":754,"ha":762,"o":"m 62 0 l 260 1018 l 338 1018 l 303 842 q 388 846 341 846 q 657 759 562 846 q 754 537 752 673 q 641 276 754 379 q 322 174 528 174 q 177 186 258 174 l 140 0 l 62 0 m 673 533 q 602 706 673 637 q 393 775 531 775 q 289 768 347 775 l 191 255 q 331 243 272 243 q 584 324 496 243 q 673 533 673 406 "},"j":{"x_min":-172.234375,"x_max":290,"ha":254,"o":"m 290 794 q 273 755 290 771 q 235 740 257 740 q 196 755 212 740 q 180 794 180 771 q 196 834 180 817 q 235 851 212 851 q 273 834 257 851 q 290 794 290 817 m 231 581 l 94 -135 q -86 -311 59 -311 q -172 -299 -125 -311 l -151 -234 q -91 -243 -122 -243 q 16 -136 -4 -243 l 155 581 l 231 581 "},"1":{"x_min":137.515625,"x_max":395.859375,"ha":464,"o":"m 395 817 l 237 0 l 161 0 l 300 714 l 151 665 l 137 732 l 383 817 l 395 817 "},"›":{"x_min":8.328125,"x_max":279.1875,"ha":357,"o":"m 279 237 l 88 13 l 8 13 l 202 244 l 97 467 l 177 467 l 279 237 "},"→":{"x_min":69.453125,"x_max":952.859375,"ha":988,"o":"m 81 371 l 830 370 l 569 626 l 618 675 l 952 343 l 950 330 l 486 -1 l 450 54 l 805 304 l 69 303 l 81 371 "},"<":{"x_min":54.171875,"x_max":538.9375,"ha":529,"o":"m 538 665 l 158 409 l 426 93 l 370 50 l 54 422 l 501 721 l 538 665 "},"t":{"x_min":59.453125,"x_max":428.515625,"ha":407,"o":"m 428 581 l 416 513 l 238 513 l 170 161 q 166 120 166 141 q 263 57 166 57 q 318 61 291 57 l 307 -4 q 241 -11 268 -11 q 90 108 90 -11 q 96 166 90 130 l 163 513 l 59 513 l 62 528 l 177 586 l 203 719 l 285 757 l 250 581 l 428 581 "},"ù":{"x_min":58,"x_max":603.703125,"ha":635,"o":"m 603 581 l 491 0 l 416 0 l 435 97 q 205 -11 314 -11 q 95 30 132 -11 q 58 140 58 72 q 64 208 58 169 l 138 581 l 216 581 l 143 214 q 137 157 137 185 q 238 56 137 56 q 445 164 330 56 l 525 581 l 603 581 m 448 701 l 418 660 l 165 814 l 213 881 l 448 701 "},"ï":{"x_min":36.109375,"x_max":394.46875,"ha":264,"o":"m 141 791 q 158 751 158 775 q 141 711 158 727 q 101 695 125 695 q 61 711 77 695 q 45 751 45 727 q 61 791 45 775 q 101 808 77 808 q 141 791 125 808 m 377 791 q 394 751 394 775 q 377 711 394 727 q 338 695 361 695 q 300 711 316 695 q 283 751 283 727 q 299 791 283 775 q 338 808 315 808 q 377 791 362 808 m 226 581 l 113 0 l 36 0 l 150 581 l 226 581 "},"ī":{"x_min":19.453125,"x_max":419.484375,"ha":264,"o":"m 226 581 l 113 0 l 36 0 l 150 581 l 226 581 m 419 779 l 406 712 l 19 712 l 33 779 l 419 779 "},"Ò":{"x_min":115,"x_max":1117,"ha":1153,"o":"m 1117 570 q 1050 292 1117 424 q 854 72 983 159 q 562 -14 725 -14 q 240 115 366 -14 q 115 448 115 244 q 181 726 115 594 q 377 946 248 859 q 669 1033 506 1033 q 991 903 865 1033 q 1117 570 1117 774 m 1038 572 q 935 851 1038 742 q 668 961 832 961 q 329 810 465 961 q 194 447 194 659 q 296 166 194 275 q 563 57 399 57 q 902 207 766 57 q 1038 572 1038 358 m 788 1145 l 758 1104 l 505 1258 l 554 1325 l 788 1145 "},"Ď":{"x_min":64.375,"x_max":945,"ha":981,"o":"m 301 -10 q 64 10 182 -10 l 258 1014 q 444 1028 343 1028 q 820 893 685 1028 q 945 568 945 768 q 768 152 945 315 q 301 -10 592 -10 m 447 960 q 325 950 382 960 l 152 70 q 320 59 234 59 q 710 200 557 59 q 864 560 864 342 q 755 850 864 744 q 447 960 645 960 m 819 1324 l 611 1117 l 569 1117 l 441 1324 l 519 1324 l 602 1189 l 734 1324 l 819 1324 "},"&":{"x_min":53,"x_max":790.5,"ha":827,"o":"m 790 319 q 602 134 684 203 q 698 28 664 62 l 646 -22 q 544 89 600 23 q 279 -13 398 -13 q 114 42 175 -13 q 53 188 53 98 q 117 343 53 276 q 304 445 182 411 q 268 587 268 526 q 335 744 268 679 q 497 810 402 810 q 623 763 575 810 q 671 653 671 716 q 405 407 671 482 q 561 186 461 312 q 741 369 648 259 l 790 319 m 503 139 q 333 388 385 288 q 183 312 236 363 q 131 192 131 261 q 171 93 131 131 q 286 55 211 55 q 503 139 383 55 m 597 646 q 567 719 597 690 q 490 749 538 749 q 386 701 430 749 q 342 593 342 654 q 377 461 342 533 q 545 538 493 493 q 597 646 597 583 "},"˝":{"x_min":201.40625,"x_max":623.65625,"ha":611,"o":"m 433 887 l 236 672 l 201 699 l 370 933 l 433 887 m 623 879 l 429 668 l 394 694 l 561 924 l 623 879 "},"I":{"x_min":68.0625,"x_max":344.46875,"ha":328,"o":"m 344 1018 l 145 0 l 68 0 l 266 1018 l 344 1018 "},"ə":{"x_min":39,"x_max":559,"ha":609,"o":"m 301 590 q 490 525 422 590 q 559 345 559 460 q 467 98 559 209 q 243 -13 375 -13 q 92 50 146 -13 q 39 208 39 113 q 51 299 39 253 l 482 299 q 485 339 485 323 q 434 474 485 426 q 293 523 384 523 q 148 495 225 523 q 146 506 147 499 q 143 527 146 513 q 139 549 140 541 l 136 559 q 301 590 209 590 m 467 238 l 116 238 q 113 200 113 226 q 147 95 113 136 q 249 54 182 54 q 380 106 319 54 q 467 238 440 158 "},"G":{"x_min":114,"x_max":1027.015625,"ha":1053,"o":"m 992 485 l 915 88 q 564 -14 747 -14 q 244 113 375 -14 q 114 437 114 240 q 194 737 114 599 q 409 954 275 876 q 695 1033 543 1033 q 880 1002 792 1033 q 1027 927 968 972 l 985 865 q 683 961 858 961 q 338 808 481 961 q 195 441 195 655 q 301 163 195 270 q 572 57 407 57 q 846 130 731 57 l 900 414 l 607 414 l 621 485 l 992 485 "},"`":{"x_min":247.234375,"x_max":530.59375,"ha":611,"o":"m 530 701 l 500 660 l 247 814 l 295 881 l 530 701 "},"·":{"x_min":139,"x_max":257,"ha":308,"o":"m 257 512 q 239 471 257 488 q 197 454 222 454 q 156 471 173 454 q 139 512 139 488 q 156 554 139 537 q 197 572 173 572 q 239 554 222 572 q 257 512 257 537 "},"ŏ":{"x_min":50,"x_max":616.640625,"ha":643,"o":"m 518 340 q 474 474 518 423 q 355 525 430 525 q 210 459 278 525 q 124 240 124 376 q 167 106 124 157 q 284 56 211 56 q 430 121 365 56 q 518 340 518 205 m 592 344 q 484 76 592 187 q 280 -11 397 -11 q 114 57 178 -11 q 50 236 50 126 q 157 504 50 393 q 361 592 244 592 q 527 523 463 592 q 592 344 592 454 m 616 851 q 549 717 601 768 q 415 667 498 667 q 295 706 340 667 q 251 811 251 746 q 253 851 251 837 l 321 857 q 318 820 318 845 q 346 749 318 773 q 420 725 374 725 q 505 759 472 725 q 549 856 538 794 l 616 851 "},"¿":{"x_min":12.5,"x_max":524,"ha":527,"o":"m 191 445 q 320 539 291 509 q 363 617 355 575 l 386 731 l 458 724 l 431 593 q 390 512 423 550 q 331 456 356 473 q 250 403 306 439 q 189 363 212 380 q 140 321 166 346 q 103 268 115 296 q 91 205 91 239 q 139 102 91 143 q 280 62 187 62 q 430 95 350 62 l 444 26 q 266 -10 344 -10 q 81 48 150 -10 q 12 195 12 106 q 59 339 12 284 q 191 445 106 393 m 406 972 q 423 1013 406 996 q 464 1031 440 1031 q 506 1013 489 1031 q 524 972 524 996 q 506 930 524 947 q 464 913 489 913 q 423 930 440 913 q 406 972 406 947 "},"ý":{"x_min":-27.78125,"x_max":627.828125,"ha":583,"o":"m 627 581 l 52 -300 l -27 -300 l 202 48 l 69 581 l 145 581 l 254 119 l 543 581 l 627 581 m 595 807 l 323 660 l 302 703 l 556 881 l 595 807 "},"º":{"x_min":147,"x_max":565,"ha":509,"o":"m 565 846 q 496 664 565 742 q 327 586 428 586 q 197 638 248 586 q 147 772 147 691 q 215 954 147 876 q 385 1033 283 1033 q 515 980 465 1033 q 565 846 565 927 m 496 844 q 464 938 496 902 q 380 975 433 975 q 265 914 313 975 q 218 776 218 854 q 249 682 218 718 q 333 646 280 646 q 448 705 400 646 q 496 844 496 765 "},"ź":{"x_min":-34.71875,"x_max":576.4375,"ha":549,"o":"m 576 807 l 304 660 l 283 703 l 537 881 l 576 807 m 572 567 l 95 65 l 466 65 l 454 0 l -31 0 l -34 12 l 443 516 l 91 516 l 104 581 l 570 581 l 572 567 "},"ű":{"x_min":58,"x_max":687.5625,"ha":635,"o":"m 603 581 l 491 0 l 416 0 l 435 97 q 205 -11 314 -11 q 95 30 132 -11 q 58 140 58 72 q 64 208 58 169 l 138 581 l 216 581 l 143 214 q 137 157 137 185 q 238 56 137 56 q 445 164 330 56 l 525 581 l 603 581 m 497 887 l 300 671 l 265 699 l 434 933 l 497 887 m 687 879 l 493 668 l 458 694 l 625 924 l 687 879 "},"Ǽ":{"x_min":-45.84375,"x_max":1432.0625,"ha":1375,"o":"m 1432 1018 l 1418 949 l 934 949 l 857 551 l 1293 551 l 1279 482 l 844 482 l 763 71 l 1248 71 l 1234 0 l 672 0 l 737 335 l 345 335 l 44 0 l -45 0 l 869 1018 l 1432 1018 m 750 402 l 845 892 l 404 402 l 750 402 m 1252 1251 l 980 1104 l 959 1147 l 1213 1325 l 1252 1251 "},"ń":{"x_min":30.90625,"x_max":620.890625,"ha":635,"o":"m 620 807 l 348 660 l 327 703 l 581 881 l 620 807 m 578 440 q 569 372 578 408 l 497 0 l 419 0 l 492 366 q 499 423 499 405 q 471 498 499 472 q 396 525 444 525 q 190 416 305 525 l 108 0 l 30 0 l 144 581 l 218 581 l 198 483 q 429 590 319 590 q 539 549 501 590 q 578 440 578 508 "},"Ș":{"x_min":4.296875,"x_max":722.484375,"ha":697,"o":"m 313 -169 q 266 -277 313 -226 q 154 -364 219 -329 l 141 -345 q 253 -219 228 -277 q 212 -198 228 -214 q 197 -157 197 -181 q 214 -117 197 -134 q 254 -101 230 -101 q 294 -119 276 -101 q 313 -169 313 -138 m 722 942 l 679 881 q 472 961 583 961 q 312 903 371 961 q 253 759 253 845 q 293 650 253 694 q 423 548 333 606 q 498 495 473 515 q 558 440 523 476 q 609 364 593 405 q 625 273 625 323 q 539 68 625 151 q 311 -14 454 -14 q 4 105 144 -14 l 48 166 q 311 58 177 58 q 482 114 419 58 q 546 264 546 171 q 532 335 546 302 q 489 396 519 367 q 434 444 459 426 q 364 494 409 463 q 293 544 319 523 q 235 597 267 564 q 188 667 203 630 q 174 751 174 705 q 260 951 174 870 q 479 1033 346 1033 q 722 942 615 1033 "},";":{"x_min":-31.953125,"x_max":218,"ha":253,"o":"m 218 450 q 200 408 218 425 q 158 392 183 392 q 117 408 134 392 q 100 450 100 425 q 117 491 100 474 q 158 509 134 509 q 200 491 183 509 q 218 450 218 474 m 141 38 q 94 -68 141 -18 q -19 -157 47 -119 l -31 -138 q 80 -11 52 -73 q 39 9 55 -8 q 23 50 23 26 q 40 90 23 73 q 80 107 56 107 q 122 88 102 107 q 141 38 141 69 "}," ":{"x_min":0,"x_max":0,"ha":347},"Ġ":{"x_min":114,"x_max":1027.015625,"ha":1053,"o":"m 992 485 l 915 88 q 564 -14 747 -14 q 244 113 375 -14 q 114 437 114 240 q 194 737 114 599 q 409 954 275 876 q 695 1033 543 1033 q 880 1002 792 1033 q 1027 927 968 972 l 985 865 q 683 961 858 961 q 338 808 481 961 q 195 441 195 655 q 301 163 195 270 q 572 57 407 57 q 846 130 731 57 l 900 414 l 607 414 l 621 485 l 992 485 m 769 1236 q 786 1195 786 1219 q 769 1156 786 1172 q 729 1140 752 1140 q 689 1156 705 1140 q 673 1195 673 1172 q 689 1236 673 1219 q 729 1252 705 1252 q 769 1236 752 1252 "},"6":{"x_min":78,"x_max":643.359375,"ha":663,"o":"m 606 265 q 526 67 606 148 q 325 -13 446 -13 q 148 59 219 -13 q 78 242 78 132 q 107 394 78 317 q 199 548 137 470 q 369 698 261 626 q 621 824 478 771 l 643 760 q 201 434 330 652 q 372 498 272 498 q 539 431 472 498 q 606 265 606 365 m 528 258 q 480 388 528 339 q 354 436 432 436 q 210 378 266 436 q 154 236 154 320 q 204 104 154 156 q 331 52 254 52 q 473 111 418 52 q 528 258 528 170 "},"n":{"x_min":30.90625,"x_max":578,"ha":635,"o":"m 578 440 q 569 372 578 408 l 497 0 l 419 0 l 492 366 q 499 423 499 405 q 471 498 499 472 q 396 525 444 525 q 190 416 305 525 l 108 0 l 30 0 l 144 581 l 218 581 l 198 483 q 429 590 319 590 q 539 549 501 590 q 578 440 578 508 "},"ģ":{"x_min":23.828125,"x_max":626.65625,"ha":660,"o":"m 383 762 q 430 871 383 819 q 543 957 477 922 l 555 939 q 444 813 469 871 q 484 792 469 808 q 500 751 500 775 q 483 711 500 728 q 443 695 466 695 q 402 713 420 695 q 383 762 383 732 m 626 581 l 501 -61 q 211 -314 451 -314 q 23 -275 118 -314 l 51 -208 q 215 -243 133 -243 q 355 -199 304 -243 q 425 -62 407 -156 l 444 37 q 284 -11 369 -11 q 120 58 187 -11 q 53 233 53 127 q 146 483 53 375 q 379 592 240 592 q 543 529 475 592 l 553 581 l 626 581 m 526 459 q 374 525 465 525 q 200 442 272 525 q 129 248 129 359 q 176 108 129 160 q 299 56 223 56 q 458 117 385 56 l 526 459 "},"℗":{"x_min":118,"x_max":1152,"ha":1170,"o":"m 850 627 q 781 479 850 537 q 612 422 713 422 q 551 425 587 422 l 518 254 l 451 254 l 551 764 q 668 771 618 771 q 802 730 755 771 q 850 627 850 690 m 782 617 q 751 685 782 659 q 663 711 720 711 q 605 707 636 711 l 562 483 q 613 479 587 479 q 734 517 687 479 q 782 617 782 555 m 1092 576 q 979 869 1092 756 q 690 983 866 983 q 324 824 471 983 q 178 443 178 666 q 291 148 178 262 q 579 35 404 35 q 944 194 797 35 q 1092 576 1092 354 m 1152 574 q 1080 285 1152 420 q 874 66 1008 150 q 576 -18 740 -18 q 245 111 373 -18 q 118 443 118 241 q 281 859 118 683 q 693 1036 445 1036 q 1024 906 896 1036 q 1152 574 1152 777 "},"p":{"x_min":-28,"x_max":604,"ha":657,"o":"m 604 350 q 510 98 604 207 q 278 -11 417 -11 q 117 47 185 -11 l 49 -300 l -28 -300 l 144 581 l 219 581 l 206 519 q 388 592 288 592 q 541 523 478 592 q 604 350 604 455 m 528 337 q 482 473 528 422 q 364 524 437 524 q 197 453 275 524 l 132 120 q 283 57 191 57 q 457 141 386 57 q 528 337 528 225 "},"‡":{"x_min":91.671875,"x_max":650.046875,"ha":607,"o":"m 650 803 l 637 735 l 430 735 l 384 500 l 595 500 l 581 433 l 372 433 l 330 217 l 255 217 l 297 433 l 91 433 l 104 500 l 309 500 l 356 735 l 147 735 l 159 803 l 369 803 l 411 1018 l 486 1018 l 444 803 l 650 803 "},"ň":{"x_min":30.90625,"x_max":618.109375,"ha":635,"o":"m 618 879 l 409 672 l 368 672 l 240 879 l 318 879 l 401 744 l 533 879 l 618 879 m 578 440 q 569 372 578 408 l 497 0 l 419 0 l 492 366 q 499 423 499 405 q 471 498 499 472 q 396 525 444 525 q 190 416 305 525 l 108 0 l 30 0 l 144 581 l 218 581 l 198 483 q 429 590 319 590 q 539 549 501 590 q 578 440 578 508 "},"ę":{"x_min":50,"x_max":570,"ha":609,"o":"m 307 -11 q 118 53 186 -11 q 50 233 50 118 q 141 480 50 369 q 365 592 233 592 q 516 528 462 592 q 570 371 570 465 q 557 281 570 326 l 125 281 q 124 240 124 268 q 174 104 124 153 q 315 56 224 56 q 460 83 383 56 q 462 72 461 79 q 465 51 462 65 q 469 28 468 37 l 472 19 q 306 -195 306 -114 q 350 -247 306 -247 q 433 -199 383 -247 l 464 -235 q 329 -304 400 -304 q 262 -281 287 -305 q 238 -215 238 -256 q 367 -8 238 -120 q 307 -11 330 -11 m 141 342 l 493 342 q 496 379 496 353 q 461 484 496 443 q 359 525 426 525 q 228 473 289 525 q 141 342 168 421 "},"S":{"x_min":4.296875,"x_max":722.484375,"ha":697,"o":"m 722 942 l 679 881 q 472 961 583 961 q 312 903 371 961 q 253 759 253 845 q 293 650 253 694 q 423 548 333 606 q 498 495 473 515 q 558 440 523 476 q 609 364 593 405 q 625 273 625 323 q 539 68 625 151 q 311 -14 454 -14 q 4 105 144 -14 l 48 166 q 311 58 177 58 q 482 114 419 58 q 546 264 546 171 q 532 335 546 302 q 489 396 519 367 q 434 444 459 426 q 364 494 409 463 q 293 544 319 523 q 235 597 267 564 q 188 667 203 630 q 174 751 174 705 q 260 951 174 870 q 479 1033 346 1033 q 722 942 615 1033 "},"/":{"x_min":-88.890625,"x_max":575.046875,"ha":443,"o":"m 575 1018 l -13 -300 l -88 -300 l 500 1018 l 575 1018 "},"į":{"x_min":-97,"x_max":285,"ha":264,"o":"m 226 581 l 114 0 l 108 0 q 42 -63 63 -43 q -4 -124 21 -84 q -30 -195 -30 -163 q 14 -247 -30 -247 q 99 -199 49 -247 l 129 -235 q -5 -304 65 -304 q -72 -281 -48 -305 q -97 -215 -97 -256 q 36 0 -97 -120 l 150 581 l 226 581 m 285 794 q 268 756 285 772 q 229 740 251 740 q 190 756 207 740 q 174 794 174 772 q 190 834 174 818 q 229 851 207 851 q 268 834 251 851 q 285 794 285 818 "},"y":{"x_min":-27.78125,"x_max":627.828125,"ha":583,"o":"m 627 581 l 52 -300 l -27 -300 l 202 48 l 69 581 l 145 581 l 254 119 l 543 581 l 627 581 "},"ǿ":{"x_min":-31.5625,"x_max":671.171875,"ha":643,"o":"m 592 344 q 483 76 592 187 q 280 -11 396 -11 q 101 69 166 -11 l 5 -13 l -31 31 l 72 119 q 49 235 49 170 q 157 504 49 393 q 360 592 244 592 q 536 512 472 592 l 633 593 l 671 549 l 567 462 q 592 344 592 412 m 518 340 q 506 411 518 377 l 157 117 q 283 56 200 56 q 429 121 364 56 q 518 340 518 205 m 123 240 q 133 170 123 199 l 481 463 q 355 525 435 525 q 209 459 277 525 q 123 240 123 376 m 627 807 l 355 660 l 334 703 l 589 881 l 627 807 "},"g":{"x_min":23.828125,"x_max":626.65625,"ha":660,"o":"m 626 581 l 501 -61 q 211 -314 451 -314 q 23 -275 118 -314 l 51 -208 q 215 -243 133 -243 q 355 -199 304 -243 q 425 -62 407 -156 l 444 37 q 284 -11 369 -11 q 120 58 187 -11 q 53 233 53 127 q 146 483 53 375 q 379 592 240 592 q 543 529 475 592 l 553 581 l 626 581 m 526 459 q 374 525 465 525 q 200 442 272 525 q 129 248 129 359 q 176 108 129 160 q 299 56 223 56 q 458 117 385 56 l 526 459 "},"–":{"x_min":72.234375,"x_max":620.890625,"ha":675,"o":"m 620 371 l 608 303 l 72 303 l 86 371 l 620 371 "},"ë":{"x_min":50,"x_max":582.65625,"ha":609,"o":"m 307 -11 q 118 53 186 -11 q 50 233 50 118 q 141 480 50 369 q 365 592 233 592 q 516 528 462 592 q 570 371 570 465 q 557 281 570 326 l 125 281 q 124 240 124 268 q 174 104 124 153 q 315 56 224 56 q 460 83 383 56 q 462 72 461 79 q 465 51 462 65 q 469 28 468 37 l 472 19 q 307 -11 399 -11 m 141 342 l 493 342 q 496 379 496 353 q 461 484 496 443 q 359 525 426 525 q 228 473 289 525 q 141 342 168 421 m 288 695 q 250 711 266 695 q 233 751 233 727 q 249 791 233 775 q 288 808 265 808 q 329 791 312 808 q 345 751 345 775 q 329 711 345 727 q 288 695 312 695 m 566 791 q 582 751 582 775 q 566 711 582 727 q 527 695 550 695 q 487 711 503 695 q 471 751 471 727 q 487 791 471 775 q 527 808 503 808 q 566 791 550 808 "},"ƒ":{"x_min":69.453125,"x_max":590.328125,"ha":515,"o":"m 590 796 l 561 726 q 486 742 525 742 q 388 700 426 742 q 320 560 351 658 l 291 467 l 418 467 l 404 400 l 270 400 l 147 0 l 69 0 l 193 400 l 112 400 l 113 416 l 213 468 l 240 555 q 341 752 281 691 q 495 814 401 814 q 590 796 544 814 "},"J":{"x_min":-19.453125,"x_max":627.828125,"ha":603,"o":"m 627 1018 l 480 267 q 200 -14 426 -14 q -19 66 75 -14 l 26 123 q 204 57 109 57 q 334 109 286 57 q 404 279 381 162 l 548 1018 l 627 1018 "},"Ã":{"x_min":-45.84375,"x_max":844.515625,"ha":910,"o":"m 834 0 l 752 0 l 687 313 l 226 313 l 37 0 l -45 0 l 588 1035 l 601 1035 l 834 0 m 672 378 l 568 875 l 266 378 l 672 378 m 844 1220 q 700 1135 769 1135 q 618 1170 663 1135 q 545 1204 573 1204 q 452 1145 506 1204 l 416 1187 q 555 1267 487 1267 q 638 1230 591 1267 q 711 1198 684 1198 q 754 1211 734 1198 q 808 1260 773 1224 l 844 1220 "},"ŷ":{"x_min":-27.78125,"x_max":627.828125,"ha":583,"o":"m 627 581 l 52 -300 l -27 -300 l 202 48 l 69 581 l 145 581 l 254 119 l 543 581 l 627 581 m 547 674 l 470 674 l 387 808 l 254 674 l 169 673 l 377 881 l 420 881 l 547 674 "},"ŕ":{"x_min":30.5625,"x_max":519.484375,"ha":369,"o":"m 519 807 l 247 660 l 226 703 l 480 881 l 519 807 m 393 593 l 379 517 l 377 517 q 273 487 316 515 q 186 396 230 460 l 108 0 l 30 0 l 144 581 l 218 581 l 197 471 q 283 559 231 526 q 393 593 334 593 "},"©":{"x_min":118,"x_max":1152,"ha":1170,"o":"m 793 301 q 607 248 704 248 q 442 310 505 248 q 381 477 379 372 q 472 687 381 599 q 695 776 564 776 q 872 717 797 776 l 839 665 q 693 715 772 715 q 521 648 590 715 q 452 483 452 581 q 497 355 452 401 q 621 309 543 309 q 776 356 699 309 l 793 301 m 1092 576 q 979 869 1092 756 q 690 983 866 983 q 324 824 471 983 q 178 443 178 666 q 291 148 178 262 q 579 35 404 35 q 944 194 797 35 q 1092 576 1092 354 m 1152 574 q 1080 285 1152 420 q 874 66 1008 150 q 576 -18 740 -18 q 245 111 373 -18 q 118 443 118 241 q 281 859 118 683 q 693 1036 445 1036 q 1024 906 896 1036 q 1152 574 1152 777 "},"˘":{"x_min":223,"x_max":588.640625,"ha":611,"o":"m 588 851 q 521 717 573 768 q 387 667 470 667 q 267 706 312 667 q 223 811 223 746 q 225 851 223 837 l 292 857 q 290 820 290 845 q 318 749 290 773 q 392 725 346 725 q 477 759 444 725 q 521 856 510 794 l 588 851 "},"Ă":{"x_min":-45.84375,"x_max":834.78125,"ha":910,"o":"m 834 0 l 752 0 l 687 313 l 226 313 l 37 0 l -45 0 l 588 1035 l 601 1035 l 834 0 m 672 378 l 568 875 l 266 378 l 672 378 m 822 1296 q 755 1161 807 1212 q 621 1111 704 1111 q 501 1150 546 1111 q 457 1256 457 1190 q 459 1296 457 1282 l 526 1302 q 524 1265 524 1290 q 552 1193 524 1218 q 626 1169 580 1169 q 711 1203 678 1169 q 755 1301 744 1238 l 822 1296 "},"D":{"x_min":64.375,"x_max":945,"ha":981,"o":"m 301 -10 q 64 10 182 -10 l 258 1014 q 444 1028 343 1028 q 820 893 685 1028 q 945 568 945 768 q 768 152 945 315 q 301 -10 592 -10 m 447 960 q 325 950 382 960 l 152 70 q 320 59 234 59 q 710 200 557 59 q 864 560 864 342 q 755 850 864 744 q 447 960 645 960 "},"ÿ":{"x_min":-27.78125,"x_max":627.828125,"ha":583,"o":"m 627 581 l 52 -300 l -27 -300 l 202 48 l 69 581 l 145 581 l 254 119 l 543 581 l 627 581 m 258 695 q 219 711 236 695 q 202 751 202 727 q 218 791 202 775 q 258 808 234 808 q 298 791 281 808 q 315 751 315 775 q 298 711 315 727 q 258 695 281 695 m 534 791 q 551 751 551 775 q 535 711 551 727 q 495 695 519 695 q 456 711 472 695 q 440 751 440 727 q 456 791 440 775 q 495 808 472 808 q 534 791 519 808 "},"ĺ":{"x_min":34.71875,"x_max":530.59375,"ha":263,"o":"m 530 1251 l 258 1104 l 237 1147 l 491 1325 l 530 1251 m 308 1018 l 111 0 l 34 0 l 231 1018 l 308 1018 "},"ł":{"x_min":50,"x_max":325.03125,"ha":294,"o":"m 325 1018 l 236 556 l 312 590 l 297 513 l 220 480 l 127 0 l 50 0 l 136 443 l 58 409 l 73 487 l 151 519 l 247 1018 l 325 1018 "},"Ł":{"x_min":91.671875,"x_max":676.4375,"ha":746,"o":"m 676 71 l 662 0 l 100 0 l 187 449 l 91 409 l 105 487 q 113 490 108 488 q 130 497 118 493 q 154 507 143 502 q 177 517 165 512 q 194 524 188 522 l 201 527 l 298 1018 l 376 1018 l 288 563 l 445 629 l 431 551 l 272 486 l 252 382 q 211 175 231 277 l 191 71 l 676 71 "},"$":{"x_min":6.75,"x_max":591.015625,"ha":595,"o":"m 479 890 l 457 807 q 591 741 525 791 l 547 681 q 441 738 489 726 l 360 428 q 475 333 438 378 q 512 220 512 288 q 437 50 512 113 q 255 -13 363 -13 l 247 -13 l 224 -100 l 163 -93 l 185 -6 q 6 82 95 10 l 51 140 q 204 59 131 74 l 288 387 q 177 478 215 434 q 140 587 140 523 q 211 748 140 683 q 395 814 282 814 l 396 814 l 418 897 l 479 890 m 438 213 q 342 353 438 286 l 264 53 q 389 98 340 56 q 438 213 438 140 m 214 594 q 305 462 214 523 l 378 746 q 258 702 302 744 q 214 594 214 659 "},"w":{"x_min":87.5,"x_max":875.0625,"ha":847,"o":"m 875 581 l 568 -17 l 554 -17 l 455 432 l 181 -17 l 168 -17 l 87 581 l 163 581 l 211 140 l 475 581 l 488 581 l 581 140 l 794 581 l 875 581 "},"\\":{"x_min":145.84375,"x_max":347.25,"ha":443,"o":"m 347 -300 l 277 -300 l 145 1018 l 213 1018 l 347 -300 "},"Ì":{"x_min":68.0625,"x_max":379.203125,"ha":328,"o":"m 344 1018 l 145 0 l 68 0 l 266 1018 l 344 1018 m 379 1145 l 348 1104 l 95 1258 l 144 1325 l 379 1145 "},"Ç":{"x_min":114,"x_max":1038.125,"ha":1015,"o":"m 624 -197 q 578 -291 624 -254 q 463 -329 533 -329 q 320 -281 391 -329 l 354 -231 q 468 -272 411 -272 q 532 -253 507 -272 q 557 -201 557 -234 q 527 -151 557 -173 q 432 -123 497 -130 l 429 -115 l 480 -7 q 217 141 321 20 q 114 437 114 262 q 284 859 114 685 q 695 1033 454 1033 q 1038 909 885 1033 l 996 847 q 683 961 858 961 q 335 808 476 961 q 195 441 195 656 q 301 163 195 270 q 572 57 408 57 q 870 152 719 57 l 904 88 q 564 -14 744 -14 q 534 -13 544 -14 l 504 -83 q 624 -197 624 -115 "},"C":{"x_min":114,"x_max":1038.125,"ha":1015,"o":"m 1038 909 l 996 847 q 683 961 858 961 q 335 808 476 961 q 195 441 195 656 q 301 163 195 270 q 572 57 408 57 q 871 152 720 57 l 904 88 q 564 -14 745 -14 q 244 113 375 -14 q 114 437 114 240 q 284 859 114 685 q 695 1033 454 1033 q 1038 909 885 1033 "},"Ē":{"x_min":61.109375,"x_max":822.28125,"ha":765,"o":"m 822 1018 l 808 949 l 325 949 l 247 551 l 683 551 l 669 482 l 234 482 l 154 71 l 638 71 l 625 0 l 61 0 l 259 1018 l 822 1018 m 773 1224 l 761 1157 l 373 1157 l 387 1224 l 773 1224 "},"!":{"x_min":40,"x_max":329.1875,"ha":282,"o":"m 329 1018 l 159 220 l 104 226 l 241 1018 l 329 1018 m 158 47 q 140 6 158 23 q 98 -11 123 -11 q 57 6 74 -11 q 40 47 40 23 q 57 89 40 72 q 98 107 74 107 q 140 89 123 107 q 158 47 158 72 "},"ç":{"x_min":54,"x_max":576.6875,"ha":572,"o":"m 378 -197 q 332 -291 378 -254 q 217 -329 287 -329 q 74 -281 145 -329 l 108 -231 q 222 -272 165 -272 q 285 -253 260 -272 q 311 -201 311 -234 q 281 -151 311 -173 q 185 -123 251 -130 l 183 -115 l 237 0 q 104 87 155 21 q 54 250 54 154 q 147 488 54 385 q 385 592 241 592 q 576 522 491 592 l 536 465 q 374 525 464 525 q 198 444 269 525 q 128 252 128 363 q 184 109 128 162 q 327 55 241 55 q 466 88 396 55 l 483 26 q 315 -11 394 -11 q 290 -10 298 -11 l 258 -83 q 378 -197 378 -115 "},"È":{"x_min":61.109375,"x_max":822.28125,"ha":765,"o":"m 822 1018 l 808 949 l 325 949 l 247 551 l 683 551 l 669 482 l 234 482 l 154 71 l 638 71 l 625 0 l 61 0 l 259 1018 l 822 1018 m 613 1145 l 583 1104 l 330 1258 l 379 1325 l 613 1145 "},"X":{"x_min":-5.5625,"x_max":1008.40625,"ha":924,"o":"m 1008 1018 l 551 509 l 816 0 l 730 0 l 497 456 l 91 0 l -5 0 l 461 515 l 198 1018 l 284 1018 l 515 568 l 912 1018 l 1008 1018 "},"ô":{"x_min":49,"x_max":592,"ha":643,"o":"m 579 674 l 503 674 l 420 808 l 287 674 l 202 674 l 410 881 l 453 881 l 579 674 m 518 340 q 474 474 518 423 q 355 525 430 525 q 209 459 277 525 q 123 240 123 376 q 166 106 123 157 q 284 56 210 56 q 430 121 365 56 q 518 340 518 205 m 592 344 q 483 76 592 187 q 280 -11 396 -11 q 113 57 177 -11 q 49 236 49 126 q 157 504 49 393 q 360 592 244 592 q 527 523 463 592 q 592 344 592 454 "},"Ė":{"x_min":61.109375,"x_max":822.28125,"ha":765,"o":"m 822 1018 l 808 949 l 325 949 l 247 551 l 683 551 l 669 482 l 234 482 l 154 71 l 638 71 l 625 0 l 61 0 l 259 1018 l 822 1018 m 613 1236 q 630 1195 630 1219 q 613 1156 630 1172 q 573 1140 597 1140 q 534 1156 550 1140 q 518 1195 518 1172 q 534 1236 518 1219 q 573 1252 550 1252 q 613 1236 597 1252 "},"Ā":{"x_min":-45.84375,"x_max":834.78125,"ha":910,"o":"m 834 0 l 752 0 l 687 313 l 226 313 l 37 0 l -45 0 l 588 1035 l 601 1035 l 834 0 m 672 378 l 568 875 l 266 378 l 672 378 m 826 1224 l 813 1157 l 426 1157 l 440 1224 l 826 1224 "},"ċ":{"x_min":54,"x_max":575.265625,"ha":572,"o":"m 575 522 l 534 465 q 372 525 462 525 q 198 444 268 525 q 128 253 128 364 q 184 109 128 162 q 326 56 240 56 q 465 89 396 56 l 482 26 q 314 -11 393 -11 q 127 60 201 -11 q 54 250 54 132 q 147 488 54 384 q 383 592 240 592 q 575 522 490 592 m 452 791 q 469 751 469 775 q 452 711 469 727 q 412 695 436 695 q 372 711 388 695 q 356 751 356 727 q 372 791 356 775 q 412 808 388 808 q 452 791 436 808 "},"đ":{"x_min":53,"x_max":762.78125,"ha":660,"o":"m 710 1018 l 679 859 l 762 859 l 750 792 l 665 792 l 512 0 l 437 0 l 448 51 q 276 -11 369 -11 q 118 58 183 -11 q 53 233 53 127 q 146 483 53 375 q 378 592 240 592 q 539 530 475 592 l 589 792 l 390 792 l 403 859 l 601 859 l 632 1018 l 710 1018 m 524 459 q 374 525 463 525 q 199 443 270 525 q 129 248 129 361 q 174 108 129 159 q 295 56 219 56 q 458 120 385 56 l 524 459 "},"℠":{"x_min":135,"x_max":733.390625,"ha":675,"o":"m 235 711 q 135 745 179 711 l 161 785 q 236 755 201 755 q 272 766 259 755 q 286 795 286 778 q 284 805 286 801 q 280 815 283 810 q 275 823 277 820 q 267 831 273 827 q 258 838 261 835 q 247 846 255 841 q 236 853 238 851 q 182 933 182 890 q 208 998 182 972 q 280 1024 235 1024 q 365 995 333 1024 l 340 955 q 278 980 312 980 q 244 969 257 980 q 232 942 232 959 q 234 929 232 935 q 238 920 236 924 q 246 911 240 917 q 255 904 252 906 q 266 895 258 901 q 280 886 275 889 q 339 804 339 850 q 311 738 339 765 q 235 711 284 711 m 686 715 l 637 715 l 670 902 l 544 754 l 538 753 l 469 902 l 430 715 l 380 715 l 454 1022 l 461 1022 l 554 823 l 725 1022 l 733 1022 l 686 715 "},"Ẃ":{"x_min":187.515625,"x_max":1402.890625,"ha":1311,"o":"m 1041 1251 l 769 1104 l 748 1147 l 1002 1325 l 1041 1251 m 1402 1018 l 934 -14 l 913 -17 l 759 855 l 275 -17 l 252 -14 l 187 1018 l 265 1018 l 313 184 l 782 1024 l 798 1024 l 950 177 l 1316 1018 l 1402 1018 "},"Ŀ":{"x_min":61.109375,"x_max":637.546875,"ha":707,"o":"m 637 71 l 623 0 l 61 0 l 259 1018 l 338 1018 l 154 71 l 637 71 m 563 451 q 525 467 541 451 q 508 506 508 483 q 524 547 508 530 q 563 563 540 563 q 604 547 587 563 q 620 506 620 530 q 604 467 620 483 q 563 451 587 451 "},"}":{"x_min":-91.359375,"x_max":403.125,"ha":408,"o":"m -91 -308 l -77 -240 l -64 -240 q 114 -77 85 -240 l 169 211 q 207 308 182 275 q 289 359 232 341 q 221 452 221 384 q 227 511 221 472 l 282 784 q 289 847 289 819 q 154 961 289 961 l 166 1029 q 361 854 361 1029 q 351 774 361 820 l 296 487 q 292 448 292 463 q 369 389 292 389 l 403 389 l 389 324 l 360 324 q 279 298 305 324 q 243 221 253 272 l 185 -82 q -71 -308 141 -308 l -91 -308 "},"â":{"x_min":31,"x_max":550.359375,"ha":586,"o":"m 525 415 q 517 339 525 389 l 448 0 l 375 0 l 387 63 q 205 -11 305 -11 q 82 34 133 -11 q 31 155 31 79 q 96 296 31 239 q 268 353 161 353 q 431 307 359 353 l 440 353 q 447 406 447 392 q 409 490 447 458 q 308 523 371 523 q 159 495 238 523 l 151 564 q 317 592 240 592 q 467 546 410 592 q 525 415 525 501 m 420 244 q 266 292 363 292 q 150 254 195 292 q 105 161 105 217 q 136 81 105 110 q 224 52 168 52 q 398 132 314 52 l 420 244 m 550 674 l 473 674 l 390 808 l 257 674 l 172 674 l 380 881 l 423 881 l 550 674 "},"ø":{"x_min":-31.5625,"x_max":671.171875,"ha":641,"o":"m 592 344 q 483 76 592 187 q 280 -11 396 -11 q 101 69 166 -11 l 5 -13 l -31 31 l 72 119 q 49 235 49 170 q 157 504 49 393 q 360 592 244 592 q 536 512 472 592 l 633 593 l 671 549 l 567 462 q 592 344 592 412 m 518 340 q 506 410 518 377 l 157 117 q 283 56 200 56 q 429 121 364 56 q 518 340 518 205 m 123 239 q 133 170 123 199 l 481 463 q 355 525 435 525 q 209 459 277 525 q 123 239 123 376 "},"‰":{"x_min":45.84375,"x_max":1207,"ha":1286,"o":"m 473 649 q 402 467 473 538 q 276 415 349 415 q 166 461 207 415 q 125 579 125 508 q 195 762 125 691 q 321 814 247 814 q 431 767 390 814 q 473 649 473 720 m 890 784 l 86 -24 l 45 17 l 850 825 l 890 784 m 410 645 q 385 726 410 694 q 315 758 361 758 q 240 724 272 758 q 186 583 186 673 q 211 503 186 534 q 280 472 236 472 q 357 503 322 472 q 410 645 410 559 m 811 221 q 740 39 811 110 q 615 -13 690 -13 q 505 33 546 -13 q 465 151 465 80 q 535 334 465 263 q 660 386 589 386 q 770 339 729 386 q 811 221 811 292 m 750 217 q 725 298 750 266 q 655 330 700 330 q 579 296 612 330 q 527 155 527 243 q 551 75 527 106 q 621 44 575 44 q 695 75 664 44 q 750 217 750 130 m 1207 221 q 1136 39 1207 110 q 1011 -13 1083 -13 q 900 33 941 -13 q 860 151 860 80 q 930 334 860 263 q 1055 386 982 386 q 1166 339 1125 386 q 1207 221 1207 292 m 1144 217 q 1119 298 1144 266 q 1049 330 1094 330 q 975 296 1005 330 q 921 155 921 244 q 945 75 921 106 q 1015 44 970 44 q 1091 75 1056 44 q 1144 217 1144 131 "},"Ä":{"x_min":-45.84375,"x_max":834.78125,"ha":910,"o":"m 834 0 l 752 0 l 687 313 l 226 313 l 37 0 l -45 0 l 588 1035 l 601 1035 l 834 0 m 672 378 l 568 875 l 266 378 l 672 378 m 508 1140 q 469 1156 486 1140 q 452 1195 452 1172 q 468 1236 452 1219 q 508 1252 484 1252 q 548 1236 531 1252 q 565 1195 565 1219 q 548 1156 565 1172 q 508 1140 531 1140 m 784 1236 q 801 1195 801 1219 q 785 1156 801 1172 q 745 1140 769 1140 q 706 1156 722 1140 q 690 1195 690 1172 q 706 1236 690 1219 q 745 1252 722 1252 q 784 1236 769 1252 "},"ř":{"x_min":30.5625,"x_max":516.703125,"ha":369,"o":"m 516 879 l 308 672 l 266 672 l 138 879 l 216 879 l 300 744 l 431 879 l 516 879 m 393 593 l 379 517 l 377 517 q 273 487 316 515 q 186 396 230 460 l 108 0 l 30 0 l 144 581 l 218 581 l 197 470 q 283 559 231 526 q 393 593 334 593 "},"—":{"x_min":72.234375,"x_max":968.140625,"ha":1022,"o":"m 968 371 l 955 303 l 72 303 l 86 371 l 968 371 "},"N":{"x_min":62.5,"x_max":1015.359375,"ha":996,"o":"m 1015 1018 l 815 -12 l 800 -15 l 305 853 l 138 0 l 62 0 l 262 1028 l 281 1033 l 773 173 l 937 1018 l 1015 1018 "},"⁄":{"x_min":-23.609375,"x_max":843.125,"ha":764,"o":"m 843 781 l 16 -24 l -23 16 l 801 822 l 843 781 "},"2":{"x_min":-6.703125,"x_max":586,"ha":606,"o":"m 586 605 q 545 471 586 531 q 383 291 504 410 l 144 69 l 508 69 l 496 0 l -2 0 l -6 16 l 341 344 q 473 489 436 435 q 510 601 510 544 q 464 705 510 665 q 346 745 418 745 q 158 681 254 745 l 137 743 q 347 814 243 814 q 518 752 451 812 q 586 605 586 693 "},"ü":{"x_min":58,"x_max":603.703125,"ha":635,"o":"m 288 695 q 250 711 266 695 q 233 751 233 727 q 249 791 233 775 q 288 808 265 808 q 329 791 312 808 q 345 751 345 775 q 329 711 345 727 q 288 695 312 695 m 565 791 q 581 751 581 775 q 566 711 581 727 q 526 695 550 695 q 486 711 502 695 q 470 751 470 727 q 486 791 470 775 q 526 808 502 808 q 565 791 550 808 m 603 581 l 491 0 l 416 0 l 435 97 q 205 -11 314 -11 q 95 30 132 -11 q 58 140 58 72 q 64 208 58 169 l 138 581 l 216 581 l 143 214 q 137 157 137 185 q 238 56 137 56 q 445 164 330 56 l 525 581 l 603 581 "},"˜":{"x_min":181.953125,"x_max":609.765625,"ha":611,"o":"m 609 776 q 465 691 534 691 q 383 726 429 691 q 311 760 338 760 q 218 701 272 760 l 181 743 q 320 823 252 823 q 404 786 356 823 q 476 754 450 754 q 519 767 500 754 q 573 816 538 780 l 609 776 "},"Ó":{"x_min":115,"x_max":1117,"ha":1153,"o":"m 966 1251 l 694 1104 l 673 1147 l 927 1325 l 966 1251 m 1117 570 q 1050 292 1117 424 q 854 72 983 159 q 562 -14 725 -14 q 240 115 366 -14 q 115 448 115 244 q 181 726 115 594 q 377 946 248 859 q 669 1033 506 1033 q 991 903 865 1033 q 1117 570 1117 774 m 1038 572 q 935 851 1038 742 q 668 961 832 961 q 329 810 465 961 q 194 447 194 659 q 296 166 194 275 q 563 57 399 57 q 902 207 766 57 q 1038 572 1038 358 "},"ˇ":{"x_min":225.015625,"x_max":602.828125,"ha":611,"o":"m 602 879 l 394 672 l 352 672 l 225 879 l 302 879 l 386 744 l 518 879 l 602 879 "},"Ÿ":{"x_min":162.515625,"x_max":938.96875,"ha":819,"o":"m 938 1018 l 483 454 l 394 0 l 316 0 l 405 456 l 162 1018 l 241 1018 l 455 522 l 848 1018 l 938 1018 m 409 1177 q 425 1218 409 1201 q 465 1234 441 1234 q 505 1218 488 1234 q 522 1177 522 1201 q 505 1138 522 1154 q 465 1122 488 1122 q 425 1138 441 1122 q 409 1177 409 1155 m 758 1177 q 741 1138 758 1155 q 702 1122 724 1122 q 663 1138 680 1122 q 647 1177 647 1155 q 662 1218 647 1201 q 702 1234 678 1234 q 742 1218 726 1234 q 758 1177 758 1201 "},"ų":{"x_min":58,"x_max":604.25,"ha":635,"o":"m 604 581 l 491 0 l 483 0 q 463 -17 480 -2 q 438 -38 445 -31 q 413 -61 430 -45 q 388 -86 397 -76 q 366 -111 379 -95 q 347 -140 354 -127 q 336 -167 341 -152 q 332 -197 332 -183 q 375 -247 332 -247 q 459 -199 409 -247 l 490 -235 q 357 -304 426 -304 q 288 -281 313 -305 q 264 -215 264 -256 q 418 8 264 -118 l 436 97 q 205 -11 315 -11 q 95 30 133 -11 q 58 140 58 72 q 65 208 58 169 l 138 581 l 216 581 l 144 214 q 137 157 137 185 q 238 56 137 56 q 445 164 330 56 l 526 581 l 604 581 "},"€":{"x_min":41.671875,"x_max":868.125,"ha":876,"o":"m 54 337 l 152 337 l 152 342 q 166 461 152 406 l 77 461 l 90 528 l 188 528 q 357 735 243 657 q 612 814 472 814 q 868 725 758 814 l 827 666 q 600 746 732 746 q 402 686 490 746 q 269 528 315 626 l 702 528 l 690 461 l 244 461 q 229 345 229 401 l 229 337 l 666 337 l 652 272 l 236 272 q 334 113 258 171 q 518 55 411 55 q 743 124 629 55 l 769 63 q 506 -12 637 -12 q 279 65 376 -12 q 158 272 181 142 l 41 272 l 54 337 "},"Ŭ":{"x_min":124,"x_max":995.125,"ha":965,"o":"m 995 1018 l 863 342 q 453 -14 793 -14 q 212 70 300 -14 q 124 301 124 155 q 136 412 124 344 l 253 1018 l 332 1018 l 213 400 q 202 304 202 347 q 271 122 202 188 q 467 57 340 57 q 678 129 599 57 q 786 356 757 201 l 915 1018 l 995 1018 m 850 1278 q 783 1143 835 1194 q 649 1093 732 1093 q 529 1132 574 1093 q 485 1237 485 1172 q 488 1277 485 1263 l 555 1283 q 552 1246 552 1271 q 580 1175 552 1199 q 654 1151 608 1151 q 739 1185 706 1151 q 783 1283 772 1220 l 850 1278 "},"ß":{"x_min":-6.9375,"x_max":633.390625,"ha":621,"o":"m 633 567 l 358 290 q 485 226 440 273 q 530 110 530 178 q 460 -57 529 10 q 279 -126 391 -126 q 152 -105 223 -126 l 172 -38 q 281 -58 227 -58 q 404 -12 356 -58 q 452 101 452 32 q 396 207 452 171 q 244 242 340 244 l 238 257 l 491 514 l 198 514 l 70 -150 l -6 -150 l 177 794 q 404 1029 223 1029 q 508 1006 461 1029 l 480 939 q 398 958 438 958 q 306 918 341 958 q 252 786 270 879 l 212 581 l 629 581 l 633 567 "},"s":{"x_min":-3.75,"x_max":464.40625,"ha":488,"o":"m 464 526 l 421 471 q 283 528 354 528 q 195 498 228 528 q 163 429 163 468 q 190 373 163 395 q 272 323 217 351 q 369 255 337 288 q 402 169 402 222 q 344 39 402 92 q 199 -13 286 -13 q -3 68 87 -13 l 42 122 q 204 52 122 52 q 296 81 262 52 q 331 157 331 111 q 303 217 331 193 q 219 270 276 241 q 155 307 177 291 q 113 352 133 323 q 94 419 94 381 q 150 541 94 490 q 294 592 207 592 q 464 526 389 592 "},"Ű":{"x_min":124,"x_max":995.125,"ha":965,"o":"m 995 1018 l 863 342 q 453 -14 793 -14 q 212 70 300 -14 q 124 301 124 155 q 136 412 124 344 l 253 1018 l 332 1018 l 213 400 q 202 304 202 347 q 271 122 202 188 q 467 57 340 57 q 678 129 599 57 q 786 356 757 201 l 915 1018 l 995 1018 m 740 1314 l 543 1098 l 508 1126 l 677 1360 l 740 1314 m 930 1305 l 736 1094 l 701 1120 l 868 1350 l 930 1305 "},"?":{"x_min":85,"x_max":595.875,"ha":526,"o":"m 416 573 q 393 559 412 570 q 369 543 373 547 q 347 529 365 540 q 325 513 330 518 q 306 498 320 509 q 288 481 293 487 q 273 464 283 475 q 259 445 263 454 q 251 424 255 436 q 244 401 247 412 l 222 287 l 150 294 l 176 425 q 199 485 183 458 q 246 538 215 512 q 297 576 277 563 q 358 615 316 588 q 438 669 409 647 q 491 730 466 691 q 516 813 516 769 q 467 916 515 875 q 327 957 419 957 q 176 923 256 957 l 163 993 q 340 1028 259 1028 q 527 970 458 1028 q 595 823 595 912 q 548 679 595 734 q 416 573 501 625 m 203 47 q 185 6 203 23 q 143 -11 168 -11 q 102 6 119 -11 q 85 47 85 23 q 102 89 85 72 q 143 107 119 107 q 185 89 168 107 q 203 47 203 72 "},"c":{"x_min":54,"x_max":575.265625,"ha":572,"o":"m 575 522 l 534 465 q 372 525 462 525 q 198 444 268 525 q 128 253 128 364 q 184 109 128 162 q 326 56 240 56 q 465 89 396 56 l 482 26 q 314 -11 393 -11 q 127 60 201 -11 q 54 250 54 132 q 147 488 54 384 q 383 592 240 592 q 575 522 490 592 "},"Ņ":{"x_min":62.5,"x_max":1015.359375,"ha":996,"o":"m 473 -169 q 426 -277 473 -226 q 313 -364 379 -329 l 301 -345 q 412 -219 387 -277 q 372 -198 387 -214 q 356 -157 356 -181 q 373 -117 356 -134 q 413 -101 390 -101 q 454 -119 436 -101 q 473 -169 473 -138 m 1015 1018 l 815 -12 l 800 -15 l 305 853 l 138 0 l 62 0 l 262 1028 l 281 1033 l 773 173 l 937 1018 l 1015 1018 "},"¶":{"x_min":117,"x_max":786.5,"ha":792,"o":"m 786 772 l 635 0 l 562 0 l 704 722 q 578 743 644 736 l 433 0 l 360 0 l 407 241 q 199 317 282 249 q 117 493 117 385 q 230 725 117 636 q 517 814 344 814 q 786 772 632 814 m 505 746 q 281 678 366 748 q 196 497 196 608 q 258 363 196 414 q 419 310 321 312 l 505 746 "},"Ī":{"x_min":68.0625,"x_max":538.9375,"ha":328,"o":"m 344 1018 l 145 0 l 68 0 l 266 1018 l 344 1018 m 538 1224 l 526 1157 l 138 1157 l 152 1224 l 538 1224 "},"•":{"x_min":127.78125,"x_max":450.03125,"ha":488,"o":"m 450 508 q 402 392 450 440 q 288 343 355 343 q 175 392 222 343 q 127 508 127 440 q 175 625 127 576 q 288 674 222 674 q 403 626 356 674 q 450 508 450 578 "},"(":{"x_min":78,"x_max":627.8125,"ha":483,"o":"m 627 973 q 281 674 412 874 q 150 252 150 474 q 210 -28 150 102 q 386 -254 270 -159 l 341 -304 q 78 249 78 -86 q 218 704 78 491 q 601 1033 358 917 l 627 973 "},"Ħ":{"x_min":61.109375,"x_max":1057.03125,"ha":964,"o":"m 984 1018 l 948 836 l 1057 836 l 1043 769 l 936 769 l 786 0 l 707 0 l 801 484 l 234 484 l 140 0 l 61 0 l 211 769 l 104 769 l 116 836 l 223 836 l 259 1018 l 338 1018 l 304 836 l 870 836 l 905 1018 l 984 1018 m 248 553 l 815 553 l 857 769 l 290 769 l 248 553 "},":":{"x_min":24,"x_max":218,"ha":253,"o":"m 218 450 q 200 408 218 425 q 158 392 183 392 q 117 408 134 392 q 100 450 100 425 q 117 491 100 474 q 158 509 134 509 q 200 491 183 509 q 218 450 218 474 m 142 47 q 124 6 142 23 q 82 -11 107 -11 q 41 6 58 -11 q 24 47 24 23 q 41 89 24 72 q 82 107 58 107 q 124 89 107 107 q 142 47 142 72 "},"Û":{"x_min":124,"x_max":995.125,"ha":965,"o":"m 820 1100 l 744 1100 l 661 1234 l 527 1100 l 443 1100 l 651 1307 l 694 1307 l 820 1100 m 995 1018 l 863 342 q 453 -14 793 -14 q 212 70 300 -14 q 124 301 124 155 q 136 412 124 344 l 253 1018 l 332 1018 l 213 400 q 202 304 202 347 q 271 122 202 188 q 467 57 340 57 q 678 129 599 57 q 786 356 757 201 l 915 1018 l 995 1018 "},"V":{"x_min":166.6875,"x_max":1054.25,"ha":942,"o":"m 1054 1018 l 416 -17 l 401 -17 l 166 1018 l 247 1018 l 438 144 l 963 1018 l 1054 1018 "},"ś":{"x_min":-3.75,"x_max":544.484375,"ha":488,"o":"m 544 807 l 272 660 l 251 703 l 505 881 l 544 807 m 464 526 l 421 471 q 283 528 354 528 q 195 498 228 528 q 163 429 163 468 q 190 373 163 395 q 272 323 217 351 q 369 255 337 288 q 402 169 402 222 q 344 39 402 92 q 199 -13 286 -13 q -3 68 87 -13 l 42 122 q 204 52 122 52 q 296 81 262 52 q 331 157 331 111 q 303 217 331 193 q 219 270 276 241 q 155 307 177 291 q 113 352 133 323 q 94 419 94 381 q 150 541 94 490 q 294 592 207 592 q 464 526 389 592 "},"Ŗ":{"x_min":60.984375,"x_max":793,"ha":807,"o":"m 793 745 q 715 536 793 624 q 499 419 638 448 l 712 0 l 619 0 l 419 408 q 374 406 405 406 q 220 416 320 406 l 140 0 l 60 0 l 258 1011 q 447 1025 365 1025 q 702 946 611 1025 q 793 745 793 868 m 712 740 q 644 895 712 836 q 448 954 577 954 q 324 946 380 954 l 234 486 q 382 476 324 476 q 625 548 538 476 q 712 740 712 620 m 361 -169 q 313 -277 361 -226 q 201 -364 266 -329 l 188 -345 q 300 -219 275 -277 q 259 -198 275 -214 q 244 -157 244 -181 q 261 -117 244 -134 q 301 -101 277 -101 q 342 -119 323 -101 q 361 -169 361 -138 "}," ":{"x_min":0,"x_max":0,"ha":301},"@":{"x_min":93,"x_max":920,"ha":958,"o":"m 920 471 q 860 283 920 367 q 711 199 800 199 q 601 264 626 199 q 469 203 543 203 q 375 232 412 203 q 339 309 339 262 q 376 396 339 362 q 473 430 414 430 q 599 389 544 430 q 606 445 606 423 q 500 522 606 522 q 421 514 464 522 l 421 566 q 514 576 468 576 q 630 541 590 576 q 670 447 670 506 q 664 397 670 430 l 650 328 q 660 271 642 292 q 715 251 679 251 q 818 320 779 251 q 857 467 857 389 q 768 681 857 598 q 540 765 679 765 q 265 647 375 765 q 156 368 156 529 q 255 134 156 226 q 518 42 355 42 q 654 58 579 42 l 660 2 q 505 -14 580 -14 q 207 97 322 -14 q 93 361 93 208 q 222 684 93 548 q 540 821 351 821 q 812 720 704 821 q 920 471 920 619 m 589 344 q 481 383 538 383 q 424 365 446 383 q 402 315 402 347 q 424 268 402 285 q 481 252 446 252 q 581 301 533 252 l 589 344 "},"i":{"x_min":36.109375,"x_max":285,"ha":264,"o":"m 285 794 q 268 756 285 772 q 229 740 251 740 q 190 756 207 740 q 174 794 174 772 q 190 834 174 818 q 229 851 207 851 q 268 834 251 851 q 285 794 285 818 m 226 581 l 113 0 l 36 0 l 150 581 l 226 581 "},"Ģ":{"x_min":114,"x_max":1027.015625,"ha":1053,"o":"m 531 -169 q 484 -277 531 -226 q 372 -364 437 -329 l 359 -345 q 470 -219 445 -277 q 430 -198 445 -214 q 415 -157 415 -181 q 431 -117 415 -134 q 472 -101 448 -101 q 513 -119 494 -101 q 531 -169 531 -138 m 992 485 l 915 88 q 564 -14 747 -14 q 244 113 375 -14 q 114 437 114 240 q 194 737 114 599 q 409 954 275 876 q 695 1033 543 1033 q 880 1002 792 1033 q 1027 927 968 972 l 985 865 q 683 961 858 961 q 338 808 481 961 q 195 441 195 655 q 301 163 195 270 q 572 57 407 57 q 846 130 731 57 l 900 414 l 607 414 l 621 485 l 992 485 "},"m":{"x_min":31.109375,"x_max":956,"ha":1014,"o":"m 956 440 q 947 372 956 408 l 875 0 l 797 0 l 870 366 q 877 423 877 405 q 850 498 877 472 q 775 525 824 525 q 572 416 688 525 l 528 180 l 492 0 l 414 0 l 488 366 q 495 423 495 405 q 468 498 495 472 q 393 525 442 525 q 190 416 306 525 l 108 0 l 31 0 l 145 581 l 218 581 l 199 483 q 425 590 320 590 q 522 559 485 590 q 567 477 558 528 q 808 590 693 590 q 917 549 879 590 q 956 440 956 508 "},"ĕ":{"x_min":50,"x_max":607.640625,"ha":609,"o":"m 307 -11 q 118 53 186 -11 q 50 233 50 118 q 141 480 50 369 q 365 592 233 592 q 516 528 462 592 q 570 371 570 465 q 557 281 570 326 l 125 281 q 124 240 124 268 q 174 104 124 153 q 315 56 224 56 q 460 83 383 56 q 462 72 461 79 q 465 51 462 65 q 469 28 468 37 l 472 19 q 307 -11 399 -11 m 141 342 l 493 342 q 496 379 496 353 q 461 484 496 443 q 359 525 426 525 q 228 473 289 525 q 141 342 168 421 m 607 851 q 540 717 592 768 q 406 667 489 667 q 286 706 331 667 q 242 811 242 746 q 244 851 242 837 l 311 857 q 309 820 309 845 q 337 749 309 773 q 411 725 365 725 q 496 759 463 725 q 540 856 529 794 l 607 851 "},"ż":{"x_min":-34.71875,"x_max":572.265625,"ha":549,"o":"m 572 567 l 95 65 l 466 65 l 454 0 l -31 0 l -34 12 l 443 516 l 91 516 l 104 581 l 570 581 l 572 567 m 358 695 q 319 711 336 695 q 302 751 302 727 q 318 791 302 775 q 358 808 334 808 q 398 791 381 808 q 415 751 415 775 q 398 711 415 727 q 358 695 381 695 "},"ő":{"x_min":49,"x_max":690.328125,"ha":643,"o":"m 500 887 l 302 671 l 268 699 l 437 933 l 500 887 m 690 879 l 495 668 l 461 694 l 627 924 l 690 879 m 518 340 q 474 474 518 423 q 355 525 430 525 q 209 459 277 525 q 123 240 123 376 q 166 106 123 157 q 284 56 210 56 q 430 121 365 56 q 518 340 518 205 m 592 344 q 483 76 592 187 q 280 -11 396 -11 q 113 57 177 -11 q 49 236 49 126 q 157 504 49 393 q 360 592 244 592 q 527 523 463 592 q 592 344 592 454 "},"ž":{"x_min":-34.71875,"x_max":575.046875,"ha":549,"o":"m 575 879 l 366 672 l 325 672 l 197 879 l 275 879 l 358 744 l 490 879 l 575 879 m 572 567 l 95 65 l 466 65 l 454 0 l -31 0 l -34 12 l 443 516 l 91 516 l 104 581 l 570 581 l 572 567 "},"á":{"x_min":31,"x_max":597.265625,"ha":586,"o":"m 525 415 q 517 339 525 389 l 448 0 l 375 0 l 387 62 q 205 -11 305 -11 q 82 34 133 -11 q 31 155 31 79 q 96 296 31 239 q 268 353 161 353 q 431 307 359 353 l 440 353 q 447 406 447 392 q 409 490 447 458 q 308 523 371 523 q 159 495 238 523 l 151 564 q 317 592 240 592 q 467 546 410 592 q 525 415 525 501 m 420 244 q 266 292 363 292 q 150 254 195 292 q 105 161 105 217 q 136 81 105 110 q 224 52 168 52 q 398 132 314 52 l 420 244 m 597 807 l 325 660 l 304 703 l 558 881 l 597 807 "},"Ŏ":{"x_min":115,"x_max":1117,"ha":1153,"o":"m 1117 570 q 1050 292 1117 424 q 854 72 983 159 q 562 -14 725 -14 q 240 115 366 -14 q 115 448 115 244 q 181 726 115 594 q 377 946 248 859 q 669 1033 506 1033 q 991 903 865 1033 q 1117 570 1117 774 m 1038 572 q 935 851 1038 742 q 668 961 832 961 q 329 810 465 961 q 194 447 194 659 q 296 166 194 275 q 563 57 399 57 q 902 207 766 57 q 1038 572 1038 358 m 948 1296 q 881 1161 933 1212 q 747 1111 830 1111 q 627 1150 672 1111 q 583 1256 583 1190 q 585 1296 583 1282 l 652 1302 q 650 1265 650 1290 q 678 1193 650 1218 q 752 1169 706 1169 q 837 1203 804 1169 q 881 1301 870 1238 l 948 1296 "},"×":{"x_min":86.125,"x_max":575.046875,"ha":620,"o":"m 533 603 l 575 550 l 379 386 l 516 216 l 462 169 l 323 340 l 126 175 l 86 227 l 281 391 l 144 562 l 198 608 l 336 437 l 533 603 "},"İ":{"x_min":68.0625,"x_max":395.859375,"ha":328,"o":"m 344 1018 l 145 0 l 68 0 l 266 1018 l 344 1018 m 338 1140 q 300 1156 316 1140 q 283 1195 283 1172 q 299 1236 283 1219 q 338 1252 315 1252 q 379 1236 362 1252 q 395 1195 395 1219 q 379 1156 395 1172 q 338 1140 362 1140 "},"Ě":{"x_min":61.109375,"x_max":822.28125,"ha":765,"o":"m 790 1324 l 581 1117 l 540 1117 l 412 1324 l 490 1324 l 573 1189 l 705 1324 l 790 1324 m 822 1018 l 808 949 l 325 949 l 247 551 l 683 551 l 669 482 l 234 482 l 154 71 l 638 71 l 625 0 l 61 0 l 259 1018 l 822 1018 "},"Ǻ":{"x_min":-45.671875,"x_max":905.625,"ha":910,"o":"m 905 1482 l 633 1335 l 612 1378 l 866 1556 l 905 1482 m 753 1148 q 712 1040 753 1089 q 612 986 672 991 l 834 0 l 753 0 l 688 313 l 226 313 l 37 0 l -45 0 l 561 990 q 500 1032 523 1001 q 478 1104 478 1062 q 523 1217 478 1168 q 633 1267 568 1267 q 718 1233 684 1267 q 753 1148 753 1200 m 672 378 l 568 875 l 266 378 l 672 378 m 696 1143 q 677 1200 696 1179 q 629 1221 658 1221 q 563 1187 591 1221 q 535 1108 535 1154 q 553 1052 535 1072 q 603 1032 572 1032 q 668 1064 640 1032 q 696 1143 696 1097 "},"K":{"x_min":61.109375,"x_max":902.84375,"ha":813,"o":"m 902 1018 l 315 519 l 723 0 l 625 0 l 238 502 l 140 0 l 61 0 l 259 1018 l 338 1018 l 245 543 l 795 1018 l 902 1018 "},"7":{"x_min":62.5,"x_max":644.5,"ha":565,"o":"m 644 801 l 144 0 l 62 0 l 525 732 l 120 732 l 134 801 l 644 801 "},"¨":{"x_min":219.46875,"x_max":568.09375,"ha":611,"o":"m 275 695 q 236 711 252 695 q 219 751 219 727 q 235 791 219 775 q 275 808 251 808 q 315 791 298 808 q 331 751 331 775 q 315 711 331 727 q 275 695 298 695 m 551 791 q 568 751 568 775 q 552 711 568 727 q 512 695 536 695 q 472 711 488 695 q 456 751 456 727 q 472 791 456 775 q 512 808 488 808 q 551 791 536 808 "},"Y":{"x_min":162.515625,"x_max":938.96875,"ha":820,"o":"m 938 1018 l 483 454 l 394 0 l 316 0 l 405 456 l 162 1018 l 241 1018 l 455 522 l 848 1018 l 938 1018 "},"E":{"x_min":61.109375,"x_max":822.28125,"ha":765,"o":"m 822 1018 l 808 949 l 325 949 l 247 551 l 683 551 l 669 482 l 234 482 l 154 71 l 638 71 l 625 0 l 61 0 l 259 1018 l 822 1018 "},"Ô":{"x_min":115,"x_max":1117,"ha":1153,"o":"m 918 1118 l 841 1118 l 758 1252 l 625 1118 l 540 1118 l 748 1325 l 791 1325 l 918 1118 m 1117 570 q 1050 292 1117 424 q 854 72 983 159 q 562 -14 725 -14 q 240 115 366 -14 q 115 448 115 244 q 181 726 115 594 q 377 946 248 859 q 669 1033 506 1033 q 991 903 865 1033 q 1117 570 1117 774 m 1038 572 q 935 851 1038 742 q 668 961 832 961 q 329 810 465 961 q 194 447 194 659 q 296 166 194 275 q 563 57 399 57 q 902 207 766 57 q 1038 572 1038 358 "},"‹":{"x_min":58.34375,"x_max":329.1875,"ha":357,"o":"m 329 467 l 134 236 l 240 13 l 159 13 l 58 242 l 248 467 l 329 467 "},"Ï":{"x_min":68.0625,"x_max":513.9375,"ha":328,"o":"m 344 1018 l 145 0 l 68 0 l 266 1018 l 344 1018 m 261 1236 q 277 1195 277 1219 q 261 1156 277 1172 q 220 1140 244 1140 q 181 1156 197 1140 q 165 1195 165 1172 q 181 1236 165 1219 q 220 1252 197 1252 q 261 1236 244 1252 m 497 1236 q 513 1195 513 1219 q 497 1156 513 1172 q 458 1140 480 1140 q 419 1156 436 1140 q 402 1195 402 1172 q 418 1236 402 1219 q 458 1252 434 1252 q 497 1236 481 1252 "},"ġ":{"x_min":23.828125,"x_max":626.65625,"ha":660,"o":"m 626 581 l 501 -61 q 211 -314 451 -314 q 23 -275 118 -314 l 51 -208 q 215 -243 133 -243 q 355 -199 304 -243 q 425 -62 407 -156 l 444 37 q 284 -11 369 -11 q 120 58 187 -11 q 53 233 53 127 q 146 483 53 375 q 379 592 240 592 q 543 529 475 592 l 553 581 l 626 581 m 526 459 q 374 525 465 525 q 200 442 272 525 q 129 248 129 359 q 176 108 129 160 q 299 56 223 56 q 458 117 385 56 l 526 459 m 483 791 q 500 751 500 775 q 483 711 500 727 q 443 695 466 695 q 403 711 419 695 q 387 751 387 727 q 403 791 387 775 q 443 808 419 808 q 483 791 466 808 "},"ķ":{"x_min":31.953125,"x_max":593.109375,"ha":550,"o":"m 259 -169 q 212 -277 259 -226 q 100 -364 165 -329 l 87 -345 q 198 -219 173 -277 q 158 -198 173 -214 q 143 -157 143 -181 q 159 -117 143 -134 q 200 -101 176 -101 q 240 -119 222 -101 q 259 -169 259 -138 m 593 581 l 238 300 l 491 0 l 404 0 l 163 287 l 108 0 l 31 0 l 229 1018 l 305 1018 l 170 322 l 490 581 l 593 581 "}," ":{"x_min":0,"x_max":0,"ha":463},"ì":{"x_min":-23.609375,"x_max":259.75,"ha":264,"o":"m 225 581 l 112 0 l 34 0 l 148 581 l 225 581 m 259 701 l 229 660 l -23 814 l 25 881 l 259 701 "},"|":{"x_min":12.5,"x_max":337.53125,"ha":324,"o":"m 80 -300 l 12 -300 l 269 1018 l 337 1018 l 80 -300 "},"§":{"x_min":30.359375,"x_max":583.96875,"ha":571,"o":"m 583 744 l 540 688 q 382 750 470 750 q 290 723 328 750 q 252 652 252 697 q 272 606 252 627 q 313 576 293 586 q 378 547 333 566 q 432 521 413 531 q 477 492 452 510 q 515 450 503 474 q 527 395 527 426 q 494 304 527 341 q 405 251 462 267 q 453 160 453 213 q 392 34 453 81 q 242 -13 331 -13 q 30 67 117 -13 l 74 121 q 155 70 106 89 q 248 51 203 51 q 342 77 306 51 q 379 151 379 103 q 358 196 379 176 q 317 227 337 217 q 252 256 296 237 q 198 281 219 270 q 152 311 177 292 q 116 354 128 330 q 105 409 105 379 q 139 497 105 460 q 229 549 173 533 q 180 644 180 587 q 241 766 180 718 q 390 814 303 814 q 583 744 507 814 m 331 297 l 352 287 q 426 321 398 294 q 454 387 454 348 q 444 420 454 405 q 416 449 435 436 q 381 470 397 462 q 338 490 366 477 q 302 506 310 502 l 287 512 q 207 481 238 508 q 176 416 176 454 q 185 383 176 398 q 215 354 195 368 q 251 333 235 341 q 294 313 267 325 q 331 297 321 302 "},"q":{"x_min":53,"x_max":626.65625,"ha":657,"o":"m 626 581 l 455 -300 l 376 -300 l 444 43 q 284 -11 371 -11 q 120 58 187 -11 q 53 233 53 127 q 146 483 53 375 q 378 592 240 592 q 541 529 473 592 l 551 581 l 626 581 m 524 459 q 374 525 463 525 q 200 442 272 525 q 129 248 129 359 q 175 108 129 159 q 298 57 222 57 q 458 120 385 57 l 524 459 "},"b":{"x_min":30.34375,"x_max":604,"ha":657,"o":"m 604 350 q 510 98 604 208 q 283 -11 417 -11 q 117 55 187 -11 l 106 0 l 30 0 l 228 1018 l 306 1018 l 212 530 q 385 591 290 591 q 542 522 481 591 q 604 350 604 454 m 528 337 q 482 473 528 422 q 364 524 437 524 q 198 454 275 524 l 133 122 q 283 56 190 56 q 457 140 386 56 q 528 337 528 225 "},"®":{"x_min":121,"x_max":596,"ha":531,"o":"m 596 826 q 517 635 596 715 q 330 555 439 555 q 180 612 240 555 q 121 761 121 670 q 199 951 121 871 q 387 1032 277 1032 q 536 974 477 1032 q 596 826 596 916 m 560 824 q 511 950 560 901 q 385 999 462 999 q 226 929 293 999 q 159 762 159 860 q 207 636 159 685 q 332 588 256 588 q 492 657 425 588 q 560 824 560 726 m 260 679 l 305 909 q 369 914 335 914 q 432 896 410 914 q 454 851 454 879 q 437 802 454 825 q 398 770 420 779 l 438 679 l 391 679 l 358 760 l 319 760 l 302 679 l 260 679 m 340 876 l 326 797 q 348 796 333 796 q 392 809 374 796 q 411 844 411 822 q 366 877 411 877 q 340 876 348 877 "},"L":{"x_min":61.109375,"x_max":637.546875,"ha":707,"o":"m 637 71 l 623 0 l 61 0 l 259 1018 l 338 1018 l 154 71 l 637 71 "},"ď":{"x_min":53,"x_max":919.515625,"ha":660,"o":"m 843 1020 l 919 1007 q 745 751 888 840 l 712 783 q 843 1020 815 869 m 710 1018 l 512 0 l 437 0 l 448 51 q 276 -11 369 -11 q 118 58 183 -11 q 53 233 53 127 q 146 483 53 375 q 378 592 240 592 q 539 530 475 592 l 632 1018 l 710 1018 m 524 459 q 374 525 463 525 q 199 443 270 525 q 129 248 129 361 q 174 108 129 159 q 295 56 219 56 q 458 120 385 56 l 524 459 "}," ":{"x_min":0,"x_max":0,"ha":281},"Ĭ":{"x_min":68.0625,"x_max":540.640625,"ha":328,"o":"m 344 1018 l 145 0 l 68 0 l 266 1018 l 344 1018 m 540 1296 q 473 1161 525 1212 q 339 1111 422 1111 q 219 1150 264 1111 q 175 1256 175 1190 q 177 1296 175 1282 l 244 1302 q 242 1265 242 1290 q 270 1193 242 1218 q 344 1169 298 1169 q 429 1203 396 1169 q 473 1301 462 1238 l 540 1296 "},"À":{"x_min":-45.84375,"x_max":834.78125,"ha":910,"o":"m 834 0 l 752 0 l 687 313 l 226 313 l 37 0 l -45 0 l 588 1035 l 601 1035 l 834 0 m 672 378 l 568 875 l 266 378 l 672 378 m 666 1145 l 636 1104 l 383 1258 l 431 1325 l 666 1145 "},"ẃ":{"x_min":87.5,"x_max":875.0625,"ha":847,"o":"m 737 807 l 465 660 l 444 703 l 698 881 l 737 807 m 875 581 l 568 -17 l 554 -17 l 455 432 l 181 -17 l 168 -17 l 87 581 l 163 581 l 211 140 l 475 581 l 488 581 l 581 140 l 794 581 l 875 581 "},"+":{"x_min":83.34375,"x_max":568.09375,"ha":611,"o":"m 568 425 l 555 357 l 355 357 l 313 146 l 241 146 l 283 357 l 83 357 l 97 425 l 297 425 l 336 633 l 408 633 l 369 425 l 568 425 "},"Ë":{"x_min":61.109375,"x_max":822.28125,"ha":765,"o":"m 455 1140 q 416 1156 433 1140 q 400 1195 400 1172 q 416 1236 400 1219 q 455 1252 431 1252 q 495 1236 479 1252 q 512 1195 512 1219 q 495 1156 512 1172 q 455 1140 479 1140 m 732 1236 q 748 1195 748 1219 q 732 1156 748 1172 q 693 1140 716 1140 q 653 1156 669 1140 q 637 1195 637 1172 q 653 1236 637 1219 q 693 1252 669 1252 q 732 1236 716 1252 m 822 1018 l 808 949 l 325 949 l 247 551 l 683 551 l 669 482 l 234 482 l 154 71 l 638 71 l 625 0 l 61 0 l 259 1018 l 822 1018 "},"'":{"x_min":129.171875,"x_max":373.640625,"ha":299,"o":"m 373 889 l 166 658 l 129 687 l 304 940 l 373 889 "},"Š":{"x_min":4.296875,"x_max":728.046875,"ha":697,"o":"m 728 1324 l 519 1117 l 478 1117 l 350 1324 l 428 1324 l 511 1189 l 643 1324 l 728 1324 m 722 942 l 679 881 q 472 961 583 961 q 312 903 371 961 q 253 759 253 845 q 293 650 253 694 q 423 548 333 606 q 498 495 473 515 q 558 440 523 476 q 609 364 593 405 q 625 273 625 323 q 539 68 625 151 q 311 -14 454 -14 q 4 105 144 -14 l 48 166 q 311 58 177 58 q 482 114 419 58 q 546 264 546 171 q 532 335 546 302 q 489 396 519 367 q 434 444 459 426 q 364 494 409 463 q 293 544 319 523 q 235 597 267 564 q 188 667 203 630 q 174 751 174 705 q 260 951 174 870 q 479 1033 346 1033 q 722 942 615 1033 "},"˛":{"x_min":147.234375,"x_max":373.640625,"ha":611,"o":"m 373 -235 q 240 -304 309 -304 q 172 -281 197 -305 q 147 -215 147 -256 q 198 -91 147 -150 q 347 44 250 -32 l 370 3 q 337 -25 366 0 q 293 -64 308 -50 q 257 -104 279 -79 q 225 -152 236 -129 q 215 -197 215 -174 q 258 -247 215 -247 q 343 -199 293 -247 l 373 -235 "},"ð":{"x_min":43,"x_max":591,"ha":641,"o":"m 538 937 l 413 859 q 591 377 591 658 q 500 98 591 208 q 271 -11 410 -11 q 106 57 170 -11 q 43 234 43 125 q 135 483 43 376 q 362 590 228 590 q 503 526 459 590 q 349 819 474 687 l 202 727 l 167 783 l 301 868 q 170 961 237 923 l 209 1021 q 364 908 294 973 l 502 994 l 538 937 m 515 347 q 472 474 515 426 q 356 522 430 522 q 189 437 259 522 q 119 240 119 352 q 163 107 119 158 q 281 57 207 57 q 446 143 377 57 q 515 347 515 229 "},"ş":{"x_min":-6.140625,"x_max":463.40625,"ha":488,"o":"m 297 -197 q 251 -291 297 -254 q 136 -329 206 -329 q -6 -281 64 -329 l 27 -231 q 141 -272 84 -272 q 204 -253 179 -272 q 230 -201 230 -234 q 200 -151 230 -173 q 105 -123 170 -130 l 102 -115 l 152 -8 q -6 69 64 4 l 39 123 q 202 53 120 53 q 294 82 260 53 q 329 158 329 112 q 301 218 329 194 q 217 271 274 241 q 154 307 176 291 q 112 353 131 323 q 93 419 93 382 q 149 541 93 490 q 293 592 206 592 q 463 526 388 592 l 420 471 q 282 528 353 528 q 194 498 227 528 q 162 429 162 468 q 189 373 162 396 q 270 323 216 351 q 367 255 335 289 q 400 169 400 222 q 345 43 400 96 q 209 -12 291 -8 l 177 -83 q 297 -197 297 -115 "}," ":{"x_min":0,"x_max":0,"ha":722},"ı":{"x_min":36.109375,"x_max":226.40625,"ha":264,"o":"m 226 581 l 113 0 l 36 0 l 150 581 l 226 581 "},"Ć":{"x_min":114,"x_max":1038.125,"ha":1015,"o":"m 954 1251 l 682 1104 l 661 1147 l 915 1325 l 954 1251 m 1038 909 l 996 847 q 683 961 858 961 q 335 808 476 961 q 195 441 195 656 q 301 163 195 270 q 572 57 408 57 q 871 152 720 57 l 904 88 q 564 -14 745 -14 q 244 113 375 -14 q 114 437 114 240 q 284 859 114 685 q 695 1033 454 1033 q 1038 909 885 1033 "},"ä":{"x_min":30,"x_max":554.21875,"ha":586,"o":"m 525 415 q 516 339 525 389 l 448 0 l 374 0 l 387 62 q 205 -11 305 -11 q 81 34 132 -11 q 30 155 30 79 q 95 296 30 239 q 267 353 160 353 q 431 307 359 353 l 440 353 q 447 406 447 392 q 409 490 447 458 q 308 523 372 523 q 159 495 238 523 l 151 564 q 318 592 240 592 q 468 546 411 592 q 525 415 525 501 m 419 244 q 265 292 362 292 q 149 254 194 292 q 104 161 104 217 q 135 81 104 110 q 223 52 167 52 q 397 132 313 52 l 419 244 m 261 695 q 222 711 238 695 q 205 751 205 727 q 221 791 205 775 q 261 808 237 808 q 301 791 284 808 q 318 751 318 775 q 301 711 318 727 q 261 695 284 695 m 537 791 q 554 751 554 775 q 538 711 554 727 q 498 695 522 695 q 459 711 475 695 q 443 751 443 727 q 459 791 443 775 q 498 808 475 808 q 537 791 522 808 "},"£":{"x_min":-1.390625,"x_max":659.78125,"ha":604,"o":"m 659 737 l 615 682 q 456 746 543 746 q 277 561 315 746 l 252 435 l 456 435 l 443 368 l 240 368 l 181 69 l 541 69 l 529 0 l -1 0 l 12 68 l 102 68 l 161 368 l 76 368 l 77 380 l 175 438 l 202 575 q 292 750 225 686 q 468 814 359 814 q 659 737 572 814 "},"ů":{"x_min":58,"x_max":603.859375,"ha":635,"o":"m 558 833 q 512 720 558 770 q 402 670 467 670 q 317 704 351 670 q 283 789 283 738 q 328 902 283 853 q 438 952 373 952 q 523 918 489 952 q 558 833 558 885 m 501 828 q 481 885 501 864 q 432 906 462 906 q 368 872 396 906 q 340 793 340 839 q 358 737 340 757 q 406 717 377 717 q 472 749 444 717 q 501 828 501 782 m 603 581 l 491 0 l 416 0 l 435 97 q 205 -11 314 -11 q 95 30 133 -11 q 58 140 58 72 q 64 208 58 169 l 138 581 l 216 581 l 143 214 q 137 157 137 185 q 238 56 137 56 q 445 164 330 56 l 526 581 l 603 581 "},"Ō":{"x_min":115,"x_max":1117,"ha":1153,"o":"m 947 1224 l 934 1157 l 547 1157 l 561 1224 l 947 1224 m 1117 570 q 1050 292 1117 424 q 854 72 983 159 q 562 -14 725 -14 q 240 115 366 -14 q 115 448 115 244 q 181 726 115 594 q 377 946 248 859 q 669 1033 506 1033 q 991 903 865 1033 q 1117 570 1117 774 m 1038 572 q 935 851 1038 742 q 668 961 832 961 q 329 810 465 961 q 194 447 194 659 q 296 166 194 275 q 563 57 399 57 q 902 207 766 57 q 1038 572 1038 358 "},"W":{"x_min":187.515625,"x_max":1402.890625,"ha":1311,"o":"m 1402 1018 l 934 -14 l 913 -17 l 759 855 l 275 -17 l 252 -14 l 187 1018 l 265 1018 l 313 184 l 782 1024 l 798 1024 l 950 177 l 1316 1018 l 1402 1018 "},"Ğ":{"x_min":114,"x_max":1027.015625,"ha":1053,"o":"m 991 485 l 915 88 q 564 -14 747 -14 q 244 113 375 -14 q 114 437 114 240 q 194 737 114 599 q 409 954 275 876 q 695 1033 543 1033 q 880 1002 792 1033 q 1027 927 968 972 l 985 865 q 683 961 858 961 q 338 808 481 961 q 195 441 195 655 q 301 163 195 270 q 572 57 407 57 q 846 130 730 57 l 900 414 l 607 414 l 621 485 l 991 485 m 929 1296 q 862 1161 914 1212 q 728 1111 811 1111 q 608 1150 653 1111 q 564 1256 564 1190 q 567 1296 564 1282 l 634 1302 q 631 1265 631 1290 q 659 1193 631 1218 q 733 1169 687 1169 q 818 1203 785 1169 q 862 1301 851 1238 l 929 1296 "},"v":{"x_min":69.453125,"x_max":622.265625,"ha":576,"o":"m 622 581 l 233 -17 l 219 -17 l 69 581 l 147 581 l 254 123 l 537 581 l 622 581 "},">":{"x_min":9.71875,"x_max":494.484375,"ha":529,"o":"m 494 360 l 47 60 l 9 115 l 390 372 l 122 689 l 177 731 l 494 360 "},"û":{"x_min":58,"x_max":603.703125,"ha":635,"o":"m 577 674 l 501 674 l 418 808 l 284 674 l 200 673 l 408 881 l 451 881 l 577 674 m 603 581 l 491 0 l 416 0 l 435 97 q 205 -11 314 -11 q 95 30 132 -11 q 58 140 58 72 q 64 208 58 169 l 138 581 l 216 581 l 143 214 q 137 157 137 185 q 238 56 137 56 q 445 164 330 56 l 525 581 l 603 581 "},"Ź":{"x_min":11.109375,"x_max":932.015625,"ha":863,"o":"m 822 1251 l 550 1104 l 529 1147 l 783 1325 l 822 1251 m 932 1004 l 147 71 l 744 71 l 730 0 l 13 0 l 11 13 l 795 949 l 227 949 l 240 1018 l 927 1018 l 932 1004 "},"Ų":{"x_min":124,"x_max":994.890625,"ha":965,"o":"m 994 1018 l 862 342 q 485 -13 796 3 q 439 -53 453 -40 q 399 -94 425 -65 q 360 -147 372 -122 q 349 -195 349 -172 q 393 -247 349 -247 q 476 -199 429 -247 l 508 -235 q 374 -304 443 -304 q 306 -281 330 -305 q 282 -215 282 -256 q 411 -11 282 -123 q 200 82 276 0 q 124 301 124 165 q 136 412 124 344 l 253 1018 l 332 1018 l 213 399 q 202 303 202 346 q 271 122 202 188 q 467 56 340 56 q 678 128 599 56 q 786 356 757 200 l 915 1018 l 994 1018 "},"Ŵ":{"x_min":187.515625,"x_max":1402.890625,"ha":1311,"o":"m 994 1118 l 918 1118 l 834 1252 l 701 1118 l 616 1118 l 825 1325 l 868 1325 l 994 1118 m 1402 1018 l 934 -14 l 913 -17 l 759 855 l 275 -17 l 252 -14 l 187 1018 l 265 1018 l 313 184 l 782 1024 l 798 1024 l 950 177 l 1316 1018 l 1402 1018 "},"Ð":{"x_min":77.59375,"x_max":986,"ha":1022,"o":"m 986 568 q 809 152 986 315 q 342 -10 633 -10 q 105 10 223 -10 l 197 484 l 77 484 l 90 553 l 209 553 l 299 1014 q 485 1028 384 1028 q 861 893 726 1028 q 986 568 986 768 m 905 560 q 796 850 905 744 q 488 960 686 960 q 366 950 423 960 l 288 553 l 477 553 l 464 484 l 274 484 l 193 70 q 361 59 275 59 q 751 200 598 59 q 905 560 905 342 "},"Ĺ":{"x_min":61.109375,"x_max":637.546875,"ha":707,"o":"m 583 1251 l 311 1104 l 290 1147 l 544 1325 l 583 1251 m 637 71 l 623 0 l 61 0 l 259 1018 l 338 1018 l 154 71 l 637 71 "},"r":{"x_min":30.5625,"x_max":393.09375,"ha":369,"o":"m 393 593 l 379 517 l 377 517 q 273 487 316 515 q 186 396 230 460 l 108 0 l 30 0 l 144 581 l 218 581 l 197 470 q 283 559 231 526 q 393 593 334 593 "},"Č":{"x_min":114,"x_max":1038.125,"ha":1015,"o":"m 951 1324 l 743 1117 l 701 1117 l 573 1324 l 651 1324 l 734 1189 l 866 1324 l 951 1324 m 1038 909 l 996 847 q 683 961 858 961 q 335 808 476 961 q 195 441 195 656 q 301 163 195 270 q 572 57 408 57 q 871 152 720 57 l 904 88 q 564 -14 745 -14 q 244 113 375 -14 q 114 437 114 240 q 284 859 114 685 q 695 1033 454 1033 q 1038 909 885 1033 "},"x":{"x_min":-36.109375,"x_max":583.375,"ha":549,"o":"m 583 581 l 318 287 l 473 1 l 394 1 l 268 243 l 54 0 l -36 0 l 233 296 l 80 581 l 159 581 l 284 337 l 495 581 l 583 581 "},"è":{"x_min":50,"x_max":570,"ha":609,"o":"m 307 -11 q 118 53 186 -11 q 50 233 50 118 q 141 480 50 369 q 365 592 233 592 q 516 528 462 592 q 570 371 570 465 q 557 281 570 326 l 125 281 q 124 240 124 268 q 174 104 124 153 q 315 56 224 56 q 460 83 383 56 q 462 72 461 79 q 465 51 462 65 q 469 28 468 37 l 472 19 q 307 -11 399 -11 m 141 342 l 493 342 q 496 379 496 353 q 461 484 496 443 q 359 525 426 525 q 228 473 289 525 q 141 342 168 421 m 448 701 l 418 660 l 165 814 l 213 881 l 448 701 "},"Ø":{"x_min":84.546875,"x_max":1147.5625,"ha":1153,"o":"m 1117 570 q 1050 292 1117 425 q 854 72 983 159 q 562 -14 725 -14 q 248 107 373 -14 l 127 -8 l 84 41 l 204 158 q 115 448 115 277 q 181 726 115 594 q 377 946 248 859 q 669 1033 506 1033 q 983 911 857 1033 l 1104 1028 l 1147 977 l 1026 861 q 1117 570 1117 740 m 1038 572 q 971 807 1038 704 l 303 159 q 564 57 403 57 q 902 207 767 57 q 1038 572 1038 358 m 194 447 q 259 212 194 312 l 928 858 q 667 961 826 961 q 329 810 464 961 q 194 447 194 659 "},"Ń":{"x_min":62.5,"x_max":1015.359375,"ha":996,"o":"m 886 1233 l 613 1086 l 593 1129 l 847 1307 l 886 1233 m 1015 1018 l 815 -12 l 800 -15 l 305 854 l 138 0 l 62 0 l 262 1029 l 281 1033 l 773 173 l 937 1018 l 1015 1018 "},"Ỳ":{"x_min":162.515625,"x_max":938.96875,"ha":820,"o":"m 938 1018 l 483 454 l 394 0 l 316 0 l 405 456 l 162 1018 l 241 1018 l 455 522 l 848 1018 l 938 1018 m 625 1127 l 594 1086 l 341 1240 l 390 1307 l 625 1127 "},"÷":{"x_min":83.34375,"x_max":568.09375,"ha":611,"o":"m 342 189 q 325 150 342 166 q 287 135 309 135 q 248 150 264 135 q 232 189 232 166 q 248 229 232 212 q 287 246 264 246 q 325 229 309 246 q 342 189 342 212 m 83 357 l 95 425 l 568 425 l 554 357 l 83 357 m 420 590 q 403 552 420 568 q 364 536 386 536 q 325 552 342 536 q 309 590 309 568 q 325 630 309 613 q 364 647 342 647 q 403 630 386 647 q 420 590 420 613 "},"h":{"x_min":30.90625,"x_max":578,"ha":635,"o":"m 578 440 q 569 372 578 408 l 497 0 l 419 0 l 492 366 q 499 423 499 405 q 471 498 499 472 q 396 525 444 525 q 190 416 304 525 l 108 0 l 30 0 l 229 1018 l 307 1018 l 201 486 q 429 590 319 590 q 539 549 501 590 q 578 440 578 508 "},".":{"x_min":24,"x_max":142,"ha":253,"o":"m 142 47 q 124 6 142 23 q 82 -11 107 -11 q 41 6 58 -11 q 24 47 24 23 q 41 89 24 72 q 82 107 58 107 q 124 89 107 107 q 142 47 142 72 "},"f":{"x_min":12.5,"x_max":544.484375,"ha":371,"o":"m 544 1008 l 516 942 q 441 956 481 956 q 349 919 379 956 q 300 785 319 883 l 259 581 l 418 581 l 404 513 l 245 513 l 88 -300 l 12 -300 l 170 513 l 65 513 l 68 528 l 184 586 l 223 781 q 302 969 248 911 q 447 1028 355 1028 q 544 1008 498 1028 "},"“":{"x_min":152.796875,"x_max":509.765625,"ha":397,"o":"m 397 782 q 356 801 375 782 q 337 850 337 819 q 384 957 337 906 q 497 1045 430 1008 l 509 1026 q 398 899 423 958 q 438 879 422 896 q 454 839 454 863 q 437 799 454 815 q 397 782 420 782 m 152 850 q 199 957 152 906 q 312 1045 245 1008 l 325 1026 q 213 899 238 958 q 253 879 237 896 q 269 839 269 863 q 252 799 269 815 q 212 782 236 782 q 170 801 188 782 q 152 850 152 819 "},"A":{"x_min":-45.84375,"x_max":834.78125,"ha":910,"o":"m 834 0 l 752 0 l 687 313 l 226 313 l 37 0 l -45 0 l 588 1035 l 601 1035 l 834 0 m 672 378 l 568 875 l 266 378 l 672 378 "},"‘":{"x_min":152.796875,"x_max":325.03125,"ha":219,"o":"m 152 850 q 199 957 152 906 q 312 1045 245 1008 l 325 1026 q 213 899 238 958 q 253 879 237 896 q 269 839 269 863 q 252 799 269 815 q 212 782 236 782 q 170 801 188 782 q 152 850 152 819 "},"O":{"x_min":115,"x_max":1117,"ha":1153,"o":"m 1117 570 q 1050 292 1117 424 q 854 72 983 159 q 562 -14 725 -14 q 240 115 366 -14 q 115 448 115 244 q 181 726 115 594 q 377 946 248 859 q 669 1033 506 1033 q 991 903 865 1033 q 1117 570 1117 774 m 1038 572 q 935 851 1038 742 q 668 961 832 961 q 329 810 465 961 q 194 447 194 659 q 296 166 194 275 q 563 57 399 57 q 902 207 766 57 q 1038 572 1038 358 "},"Đ":{"x_min":77.59375,"x_max":986,"ha":1022,"o":"m 986 568 q 809 152 986 315 q 342 -10 633 -10 q 105 10 223 -10 l 197 484 l 77 484 l 90 553 l 209 553 l 299 1014 q 485 1028 384 1028 q 861 893 726 1028 q 986 568 986 768 m 905 560 q 796 850 905 744 q 488 960 686 960 q 366 950 423 960 l 288 553 l 477 553 l 464 484 l 274 484 l 193 70 q 361 59 275 59 q 751 200 598 59 q 905 560 905 342 "},"3":{"x_min":4.078125,"x_max":646.796875,"ha":584,"o":"m 641 802 l 646 789 l 274 450 q 451 379 383 439 q 519 231 519 320 q 440 57 519 127 q 236 -13 361 -13 q 4 45 133 -13 l 36 106 q 240 55 149 55 q 388 102 333 55 q 443 224 443 150 q 372 353 443 309 q 169 397 301 397 l 148 397 l 141 408 l 495 731 l 142 731 l 155 802 l 641 802 "},"9":{"x_min":73.203125,"x_max":637,"ha":654,"o":"m 637 559 q 504 239 637 398 q 94 -24 371 80 l 73 41 q 513 363 376 145 q 352 308 446 308 q 182 374 251 308 q 114 538 114 440 q 193 735 114 656 q 392 814 273 814 q 571 740 505 814 q 637 559 637 666 m 561 570 q 511 698 561 648 q 386 749 462 749 q 246 691 301 749 q 192 545 192 633 q 240 417 192 466 q 366 369 289 369 q 507 427 454 369 q 561 570 561 485 "},"Ǿ":{"x_min":84.546875,"x_max":1147.5625,"ha":1153,"o":"m 1117 570 q 1050 292 1117 425 q 854 72 983 159 q 562 -14 725 -14 q 248 107 373 -14 l 127 -8 l 84 41 l 204 158 q 115 448 115 277 q 181 726 115 594 q 377 946 248 859 q 669 1033 506 1033 q 983 911 857 1033 l 1104 1028 l 1147 977 l 1026 861 q 1117 570 1117 740 m 1038 572 q 971 807 1038 704 l 303 159 q 564 57 403 57 q 902 207 767 57 q 1038 572 1038 358 m 194 447 q 259 212 194 312 l 928 858 q 667 961 826 961 q 329 810 464 961 q 194 447 194 659 m 966 1251 l 694 1104 l 673 1147 l 927 1325 l 966 1251 "},"l":{"x_min":34.71875,"x_max":308.359375,"ha":263,"o":"m 308 1018 l 111 0 l 34 0 l 231 1018 l 308 1018 "},"4":{"x_min":30.5625,"x_max":636.15625,"ha":661,"o":"m 636 309 l 622 242 l 488 242 l 441 -1 l 369 -1 l 416 242 l 30 242 l 33 265 l 576 815 l 601 815 l 502 309 l 636 309 m 430 309 l 497 648 l 161 308 l 430 309 "},"Ẁ":{"x_min":187.515625,"x_max":1402.890625,"ha":1311,"o":"m 1402 1018 l 934 -14 l 913 -17 l 759 855 l 275 -17 l 252 -14 l 187 1018 l 265 1018 l 313 184 l 782 1024 l 798 1024 l 950 177 l 1316 1018 l 1402 1018 m 863 1145 l 833 1104 l 580 1258 l 629 1325 l 863 1145 "}," ":{"x_min":0,"x_max":0,"ha":104},"Ť":{"x_min":152.796875,"x_max":911.1875,"ha":803,"o":"m 790 1324 l 581 1117 l 540 1117 l 412 1324 l 490 1324 l 573 1189 l 705 1324 l 790 1324 m 911 1018 l 897 946 l 562 946 l 379 0 l 301 0 l 484 946 l 152 946 l 166 1018 l 911 1018 "},"Ü":{"x_min":124,"x_max":995.125,"ha":965,"o":"m 476 1177 q 492 1218 476 1201 q 531 1234 508 1234 q 572 1218 555 1234 q 588 1177 588 1201 q 572 1138 588 1154 q 531 1122 555 1122 q 492 1138 508 1122 q 476 1177 476 1155 m 825 1177 q 808 1138 825 1155 q 769 1122 791 1122 q 730 1138 747 1122 q 714 1177 714 1155 q 729 1218 714 1201 q 769 1234 745 1234 q 809 1218 793 1234 q 825 1177 825 1201 m 995 1018 l 863 342 q 453 -14 793 -14 q 212 70 300 -14 q 124 301 124 155 q 136 412 124 344 l 253 1018 l 332 1018 l 213 400 q 202 304 202 347 q 271 122 202 188 q 467 57 340 57 q 678 129 599 57 q 786 356 757 201 l 915 1018 l 995 1018 "},"à":{"x_min":31,"x_max":525,"ha":586,"o":"m 525 415 q 517 339 525 389 l 448 0 l 375 0 l 387 62 q 205 -11 305 -11 q 82 34 133 -11 q 31 155 31 79 q 96 296 31 239 q 268 353 161 353 q 431 307 359 353 l 440 353 q 447 406 447 392 q 409 490 447 458 q 308 523 371 523 q 159 495 238 523 l 151 564 q 317 592 240 592 q 467 546 410 592 q 525 415 525 501 m 420 244 q 266 292 363 292 q 150 254 195 292 q 105 161 105 217 q 136 81 105 110 q 224 52 168 52 q 398 132 314 52 l 420 244 m 419 701 l 388 660 l 136 814 l 184 881 l 419 701 "},"Ś":{"x_min":4.296875,"x_max":730.609375,"ha":697,"o":"m 730 1251 l 458 1104 l 437 1147 l 691 1325 l 730 1251 m 722 942 l 679 881 q 472 961 583 961 q 312 903 371 961 q 253 759 253 845 q 293 650 253 694 q 423 548 333 606 q 498 495 473 515 q 558 440 523 476 q 609 364 593 405 q 625 273 625 323 q 539 68 625 151 q 311 -14 454 -14 q 4 105 144 -14 l 48 166 q 311 58 177 58 q 482 114 419 58 q 546 264 546 171 q 532 335 546 302 q 489 396 519 367 q 434 444 459 426 q 364 494 409 463 q 293 544 319 523 q 235 597 267 564 q 188 667 203 630 q 174 751 174 705 q 260 951 174 870 q 479 1033 346 1033 q 722 942 615 1033 "},"ó":{"x_min":49,"x_max":627.890625,"ha":643,"o":"m 627 807 l 355 660 l 334 703 l 589 881 l 627 807 m 518 340 q 474 474 518 423 q 355 525 430 525 q 209 459 277 525 q 123 240 123 376 q 166 106 123 157 q 284 56 210 56 q 430 121 365 56 q 518 340 518 205 m 592 344 q 483 76 592 187 q 280 -11 396 -11 q 113 57 177 -11 q 49 236 49 126 q 157 504 49 393 q 360 592 244 592 q 527 523 463 592 q 592 344 592 454 "},"ŗ":{"x_min":-70.84375,"x_max":391.703125,"ha":369,"o":"m 101 -169 q 54 -277 101 -226 q -58 -364 6 -329 l -70 -345 q 40 -219 15 -277 q 0 -198 15 -214 q -15 -157 -15 -181 q 1 -117 -15 -134 q 41 -101 18 -101 q 82 -119 63 -101 q 101 -169 101 -138 m 391 593 l 377 517 l 376 517 q 272 487 315 515 q 184 396 229 460 l 106 0 l 29 0 l 143 581 l 216 581 l 195 470 q 281 559 230 526 q 391 593 333 593 "}}}
